<svg id="SvgjsSvg1021" width="288" height="288" xmlns="http://www.w3.org/2000/svg" version="1.1" xmlns:xlink="http://www.w3.org/1999/xlink" xmlns:svgjs="http://svgjs.com/svgjs"><defs id="SvgjsDefs1022"></defs><g id="SvgjsG1023"><svg xmlns="http://www.w3.org/2000/svg" fill="none" viewBox="0 0 24 24" width="288" height="288"><path fill="#ffffff" d="M10 10C10 10.5523 10.4477 11 11 11V17C10.4477 17 10 17.4477 10 18 10 18.5523 10.4477 19 11 19H13C13.5523 19 14 18.5523 14 18 14 17.4477 13.5523 17 13 17V9H11C10.4477 9 10 9.44772 10 10zM12 8C12.8284 8 13.5 7.32843 13.5 6.5 13.5 5.67157 12.8284 5 12 5 11.1716 5 10.5 5.67157 10.5 6.5 10.5 7.32843 11.1716 8 12 8z" class="color0F0F0F svgShape"></path><path fill="#ffffff" fill-rule="evenodd" d="M23 4C23 2.34315 21.6569 1 20 1H4C2.34315 1 1 2.34315 1 4V20C1 21.6569 2.34315 23 4 23H20C21.6569 23 23 21.6569 23 20V4ZM21 4C21 3.44772 20.5523 3 20 3H4C3.44772 3 3 3.44772 3 4V20C3 20.5523 3.44772 21 4 21H20C20.5523 21 21 20.5523 21 20V4Z" clip-rule="evenodd" class="color0F0F0F svgShape"></path></svg></g></svg>