<svg id="SvgjsSvg1027" width="288" height="288" xmlns="http://www.w3.org/2000/svg" version="1.1" xmlns:xlink="http://www.w3.org/1999/xlink" xmlns:svgjs="http://svgjs.com/svgjs"><defs id="SvgjsDefs1028"></defs><g id="SvgjsG1029"><svg xmlns="http://www.w3.org/2000/svg" fill="none" viewBox="0 0 24 24" width="288" height="288"><path stroke="#ffffff" stroke-linecap="round" stroke-linejoin="round" stroke-width="2" d="M4 19V6.2C4 5.0799 4 4.51984 4.21799 4.09202C4.40973 3.71569 4.71569 3.40973 5.09202 3.21799C5.51984 3 6.0799 3 7.2 3H16.8C17.9201 3 18.4802 3 18.908 3.21799C19.2843 3.40973 19.5903 3.71569 19.782 4.09202C20 4.51984 20 5.0799 20 6.2V17H6C4.89543 17 4 17.8954 4 19ZM4 19C4 20.1046 4.89543 21 6 21H20M9 7H15M9 11H15M19 17V21" class="colorStroke000 svgStroke"></path></svg></g></svg>