<svg id="SvgjsSvg1011" width="288" height="288" xmlns="http://www.w3.org/2000/svg" version="1.1" xmlns:xlink="http://www.w3.org/1999/xlink" xmlns:svgjs="http://svgjs.com/svgjs"><defs id="SvgjsDefs1012"></defs><g id="SvgjsG1013"><svg xmlns="http://www.w3.org/2000/svg" viewBox="0 0 512 512" width="288" height="288"><path fill="#ffffff" fill-rule="evenodd" d="M341.333333,1.42108547e-14 L426.666667,85.3333333 L426.666667,341.333333 L3.55271368e-14,341.333333 L3.55271368e-14,1.42108547e-14 L341.333333,1.42108547e-14 Z M330.666667,42.6666667 L42.6666667,42.6666667 L42.6666667,298.666667 L384,298.666667 L384,96 L330.666667,42.6666667 Z M149.333333,234.666667 L149.333333,266.666667 L85.3333333,266.666667 L85.3333333,234.666667 L149.333333,234.666667 Z M341.333333,234.666667 L341.333333,266.666667 L192,266.666667 L192,234.666667 L341.333333,234.666667 Z M149.333333,170.666667 L149.333333,202.666667 L85.3333333,202.666667 L85.3333333,170.666667 L149.333333,170.666667 Z M341.333333,170.666667 L341.333333,202.666667 L192,202.666667 L192,170.666667 L341.333333,170.666667 Z M149.333333,106.666667 L149.333333,138.666667 L85.3333333,138.666667 L85.3333333,106.666667 L149.333333,106.666667 Z M341.333333,106.666667 L341.333333,138.666667 L192,138.666667 L192,106.666667 L341.333333,106.666667 Z" transform="translate(42.667 85.333)" class="color000 svgShape"></path></svg></g></svg>