<svg xmlns="http://www.w3.org/2000/svg" id="Layer_2" data-name="Layer 2" viewBox="0 0 1033.6 943.66"><defs><style> .cls-1, .cls-2 { stroke-width: 0px; } .cls-2 { fill: #fff; } </style></defs><g id="Layer_1-2" data-name="Layer 1"><g><path class="cls-2" d="M15.18,386.11l10.46,9.25c1.21,1.07,1.04,2.99-.32,3.84l-10.65,6.62c-.14.08-.26.18-.38.29l-6.21,5.85c-1.04.98-1,2.64.08,3.57l23.02,19.89c.08.07.16.13.25.19l12.27,8.12s.09.06.14.1l446.04,342.8,94.72,66.95c1.53,1.08,3.65.08,3.79-1.79l5.8-81.56c.05-.74-.24-1.47-.79-1.96L98.52,324.93c-.36-.32-.8-.53-1.28-.59l-14.88-2.03c-.25-.03-.5-.03-.75.02l-31.11,5.61c-1.57.28-2.43,1.98-1.74,3.42l11.67,24c.64,1.32-.04,2.91-1.45,3.35l-30.34,9.4c-1.77.55-2.28,2.81-.91,4.07l2.97,2.72c1.25,1.15.95,3.19-.57,3.93l-14.94,7.29"></path><polygon class="cls-2" points="39.61 439.64 16.42 448.47 49.45 478.98 95.95 521.84 136.11 559.02 168.09 583.49 297.7 683.37 461.72 810.16 554.24 881.71 580.64 898.16 582 839.36 66.15 428.98 39.61 439.64"></polygon><path class="cls-2" d="M35.55,465.2l-11.08-8.28c-1.06-.79-2.46-.92-3.65-.34l-11.97,4.84c-1.95.95-2.33,3.17-1.08,4.94l10.96,9.46c1.39,1.97,2.22,3.4-.1,4.08l-8.94,2.62c-2.53.74-3.38,3.9-1.56,5.81l6.66,6.99c1.6,1.68,1.17,4.42-.88,5.53h0c-2.17,1.17-2.49,4.14-.64,5.76l3.51,3.05c1.61,1.4,1.62,3.91,0,5.31l-8.07,7.02c-1.72,1.5-1.58,4.22.28,5.53l8.35,5.88c.07.05.13.09.19.15l123.23,100.06,47.21,37.4,101.46,75.56,86.14,64.59,71.32,50.48,33.78,23.27c.08.06.17.11.26.16l37.57,21.36c.14.08.28.17.41.27l36.88,28.45c.06.05.12.09.18.13l11.82,7.96c2.2,1.48,11.4-1.39,11.68-4.03l.97-2.09c.03-.26.03-.53,0-.79l-1.38-11.5c-.05-.44-.02-.88.09-1.3l5.67-21.91c.29-1.13,0-2.33-.76-3.2l-16.32-18.61c-.18-.21-.39-.39-.61-.55l-83.8-59.49c-.06-.04-.11-.08-.16-.12l-217.11-173.89L35.55,465.2Z"></path><path class="cls-2" d="M1019.18,520.45l4.48,8.44c1.29,2.43.22,5.43-2.31,6.5l-19.85,8.38c-.14.06-.28.13-.42.2l-315.85,172.3-86.56,47.43c-3.12,1.71-6.92-.55-6.92-4.1v-7.55c0-1.89,1.14-3.6,2.89-4.32l11.1-4.59c.11-.04.21-.09.31-.14l49.99-25.14,102.51-54.65,93.05-50.83,136.76-70.78c.17-.09.34-.19.5-.3l30.32-20.84"></path><g><path class="cls-1" d="M549.38,806.43c-.77-1.68-1.66-3.48.25-4.9,1.8-1.34,3.37-.22,4.93.83,3.18,2.13,6.56,3.57,11.85,2.64-3.01-2.67-5.07-4.91-7.52-6.59-5.53-3.8-11.17-7.45-16.92-10.93-8.57-5.18-16.85-10.7-24.2-17.56-6.66-6.21-13.87-11.67-21.77-16.27-24.68-14.38-48.08-30.57-69.7-49.33-5.46-4.74-11.74-8.52-17.6-12.81-6.89-5.03-13.76-10.08-20.57-15.21-11.45-8.63-22.62-17.66-34.31-25.95-17.37-12.3-33.4-26.22-49.78-39.73-24.09-19.87-47.98-39.97-72.94-58.78-17.1-12.89-33.37-26.88-49.97-40.42-17.02-13.88-34.07-27.73-50.97-41.76-7.26-6.03-14.46-12.19-21.17-18.8-10.77-10.61-22.63-19.89-34.27-29.46-11.78-9.69-23.26-19.72-33.37-31.22-3.09-3.52-6.59-6.69-10.14-10.26-3.22,1.75-6.06,3.28-8.88,4.86-.95.53-1.8,1.23-2.75,1.76-1.54.85-3.15,1.16-4.41-.43-1.54-1.94-.33-3.45,1.12-4.65,1.39-1.15,2.99-2.04,4.51-3.03,1.34-.87,2.7-1.72,4.55-2.89-1.92-1.47-3.66-2.46-4.92-3.88-.97-1.09-1.85-2.71-1.85-4.09,0-1.9,1.84-2.16,3.54-2.62,11.35-3.06,22.65-6.29,34.5-9.62-1.94-3.35-3.58-6.1-5.14-8.9-2.8-5.03-5.66-10.03-8.23-15.17-.5-1-.22-2.92.47-3.85.91-1.23,2.5-2.04,3.94-2.77,6.57-3.36,13.62-4.92,20.93-5.44,2.71-.19,5.42-.25,8.67-.4-.46-1.42-.65-2.61-1.19-3.61-2.78-5.08-5.61-10.13-8.5-15.14-1.58-2.74-.47-5.18,2.65-5.35,1.06-.06,2.14.32,3.22.45,12.63,1.5,23.11-2.87,32.38-11.84-1.76-3.99-3.62-7.88-5.2-11.89-1.85-4.72-3.64-9.48-5.11-14.32-1.22-4-.79-4.84,2.82-6.33,6.03-2.49,12.16-4.76,18.25-7.13,12-4.68,23.99-9.36,35.97-14.07.46-.18.81-.66,1.53-1.28-.84-2.64-1.67-5.38-2.57-8.1-7.98-24.23-12.92-49.11-15.89-74.41-.51-4.35.02-5.31,3.99-6.31,65.35-16.29,129.18-37.78,193.7-56.87,83.32-24.66,166.43-50.04,249.63-75.12,7.12-2.15,14.2-4.44,21.31-6.6,5.57-1.69,5.82-1.31,7.34,4.14,1.46,5.23,3.44,10.32,5.25,15.46,11.48,32.51,22.17,65.32,34.62,97.45,28.07,72.47,67.53,138.58,114.9,200.03,33.15,43,69.92,82.6,111.53,117.57,32.38,27.21,66.9,51.16,105.75,68.38,4.97,2.2,10.1,4.04,15.11,6.17,6.83,2.9,13.66,5.83,20.4,8.92,4.08,1.87,4.37,4.55.9,7.45-1.37,1.15-3.02,2-4.61,2.85-129.08,68.83-258.17,137.64-387.27,206.46-9.45,5.04-18.9,10.07-28.34,15.13q-4.92,2.63-4.17,9.51c2.38-1.26,4.6-2.42,6.8-3.61,138.25-75.18,276.49-150.36,414.74-225.54,1.75-.95,3.51-1.89,5.28-2.82,1.85-.97,3.5-.66,4.94.83,1.38,1.42,2.21,3.13,1.07,4.91-2.98,4.65-2.52,10.11-3.72,15.17-.46,1.94-.06,4.5.9,6.26,1.48,2.74,1.99,5.36,1.45,8.33-.1.53-.1,1.11.03,1.63,1.7,6.86.13,13.56-.8,20.33-1.3,9.41-1.08,18.85.49,28.22.53,3.17.86,6.5,4.07,8.54.7.45,1.07,1.88,1.09,2.87.13,8.16.46,16.33-2.84,24.13-2.12,5.01-1.74,10.3-1.09,15.58.73,5.94,1.18,11.92,2.07,17.83.65,4.29,1.77,8.51,2.79,12.74,1.43,5.94.76,6.66-4.25,10.07-22.38,15.2-47.83,24.32-71.8,36.35-40.89,20.53-81.57,41.4-120.63,65.28-23.57,14.41-48.37,26.52-73,38.95-12.31,6.22-24.75,12.17-37.24,18.01-23.55,11.01-45.95,24.11-68.44,37.07-7.39,4.26-14.84,8.43-22.29,12.57-12.55,6.98-25.55,12.95-38.94,18.18-4.5,1.76-8.69,4.4-12.87,6.88-3.91,2.32-6.16,1.44-6.83-2.9-.36-2.31-.86-4.62-1.53-6.86-1.27-4.2-1.09-8.16.99-12.11,2-3.81,3.73-7.77,5.39-11.28-.58-.96-.68-1.41-.95-1.56-5.69-3.01-6.35-7.95-5.1-13.53.67-3.01,1.71-5.93,2.34-8.94,1.4-6.74,2.25-13.49,2.39-20.46.22-11.05,1.54-22.08,2.43-33.11,1.25-15.38,2.54-30.77,3.78-46.15.13-1.6.02-3.22.02-5.3-1.37.12-2.58.04-3.7.34-5.21,1.38-10.07.4-14.76-1.96-.32-.16-.66-.31-.97-.5-20.98-12.99-42.73-24.95-61.26-41.44-12.53-11.16-26.65-20.05-40-30.03-37.68-28.17-74.36-57.59-110.61-87.56-13.98-11.57-28.58-22.41-42.28-34.3-34.01-29.52-68.22-58.86-98.04-92.83-12.1-13.78-24.38-27.41-36.62-41.07-2.42-2.7-5.01-5.26-7.56-7.84-28.26-28.66-53.77-59.57-76.09-93.07-4.52-6.78-8.6-13.85-12.97-20.93-10.2-.34-20.29-.6-30.53,4.41,2.83,5.52,5.25,10.97,8.3,16.04,12.49,20.75,26.99,40.02,43.31,57.94,18.73,20.57,38.15,40.52,59.82,57.96,16.62,13.38,31.55,28.4,46.7,43.28,16.33,16.03,32.82,31.93,52.24,44.33.76.49,1.41,1.33,2.23,1.54,8.26,2.13,12.61,8.92,17.46,14.92,6.34,7.85,13.78,14.32,21.88,20.29,8.75,6.45,17.01,13.59,25.36,20.58,14.9,12.46,29.26,25.62,44.66,37.43,26.51,20.32,53.6,39.88,80.53,59.65,12.44,9.13,24.82,18.37,37.64,26.94,21.27,14.23,42.88,27.96,64.34,41.91,1.37.89,2.76,1.77,4,2.82,1.4,1.19,1.98,3.06.67,4.3-.94.89-2.83.99-4.31,1.04-.76.02-1.57-.81-2.33-1.31-18.13-11.75-36.43-23.24-54.35-35.32-40.66-27.4-80.24-56.31-119.16-86.12-14.69-11.25-28.36-23.81-42.88-35.29-14.09-11.15-26.94-23.78-41.85-33.96-5.93-4.04-11.51-9.09-15.93-14.71-6.3-8.01-13.69-14.52-22.17-19.84-21.73-13.64-39.8-31.51-57.85-49.43-8.51-8.44-16.91-17.01-25.76-25.09-7.63-6.97-15.97-13.14-23.73-19.97-32.97-29.01-63.41-60.33-87.96-96.99-.3-.44-.72-.8-1.62-1.78-9.76,2.65-19.85,5.39-29.94,8.13-.3.45-.61.89-.91,1.34,1.21.72,2.61,1.25,3.61,2.2,5.64,5.38,11.1,10.95,16.77,16.3,8.98,8.46,17.79,17.14,27.19,25.11,12.04,10.22,24.41,20.01,36.04,30.74,13.07,12.05,26.98,23.19,40.66,34.55,23.88,19.83,47.83,39.59,71.85,59.27,6.74,5.52,13.81,10.63,20.73,15.93,27.81,21.34,54.54,44.01,81.12,66.85,8.09,6.95,16.99,12.97,25.51,19.43,14.47,10.97,28.92,21.95,43.39,32.91,4.05,3.07,7.98,6.34,12.26,9.06,12.44,7.92,24.07,16.91,35.22,26.52,12.84,11.07,26.93,20.32,41.3,29.23,9.71,6.02,19.25,12.32,28.76,18.66,2.7,1.8,5.12,4.08,7.48,6.33,7.42,7.06,15.86,12.67,24.57,17.96,6.2,3.76,12.25,7.8,18.13,12.04,2.61,1.88,5.01,4.28,6.88,6.89,3.66,5.1,1.2,10.33-5.04,11.02-2.11.23-4.33-.18-6.46-.56-1.95-.35-3.83-1.04-5.74-1.58-1.42-1.08-2.83-2.16-4.25-3.24ZM526.46,714.94c-1.42-1.13-2.83-2.26-4.25-3.38-5.91-4.75-11.76-9.56-17.73-14.23-25.63-20-50.95-40.39-74.79-62.52-34.91-32.41-67.45-67.11-98.39-103.3-32.76-38.31-62.01-79.15-87.67-122.55-19.51-33-36.58-67.29-53.95-101.42-10.13-19.89-20.43-39.71-28.67-60.5-1.46-3.69-2.9-7.39-4.5-11.48-18.17,7.18-36.07,14.26-54.34,21.48,2.24,5.44,4.18,10.51,6.39,15.47,11.26,25.3,25.52,48.9,41.04,71.76,36.63,53.95,79.04,103.15,123.79,150.41,30.86,32.59,63.21,63.65,96.4,93.84,46.93,42.67,95.89,82.86,147.17,120.21,1.58,1.15,3.36,2.05,5.04,3.06,1.51,1.03,3.02,2.06,4.53,3.09,1.74,2.66,4.27,4.13,7.25,4.92-1.8-1.74-3.78-3.22-5.82-4.61-.38-.26-.99-.17-1.49-.25ZM142.17,147.46c.62,3.06,1.3,5.67,1.66,8.31,5.19,38.07,15.88,74.58,32.5,109.15,14.78,30.75,30.5,61.06,46.05,91.43,31.32,61.2,69.09,118.12,113.81,170.37,47.58,55.6,98.79,107.45,156.49,152.73,29.61,23.23,59.84,45.47,92,65.06,4.49,2.73,7.85,2.66,12.38.24,136.4-72.86,272.87-145.59,409.33-218.34,1.58-.84,3.13-1.76,5.32-3-2.37-1.05-4.16-1.83-5.95-2.64-14.89-6.7-30.1-12.76-44.59-20.22-42.13-21.72-79.13-50.64-113.65-82.86-43.74-40.82-81.96-86.38-115.78-135.67-37.23-54.26-68.59-111.67-91.25-173.57-11.54-31.52-22.25-63.35-33.35-95.03-.64-1.82-1.38-3.61-2.09-5.47-154.53,46.58-308.54,92.99-462.86,139.5ZM502.77,721.99c.23-.25.46-.5.7-.75-2.34-2.38-4.67-4.77-7.02-7.14-10.4-10.47-22.42-18.98-33.89-28.18-15-12.03-29.23-25.04-43.87-37.53-18.23-15.55-36.1-31.58-56.4-44.5-16.4-10.44-29.41-24.05-39.65-40.52-5.61-9.02-12.94-16.61-21.42-23.02-9.53-7.21-17.02-16.18-23.78-25.99-6.38-9.25-12.81-18.61-20.37-26.87-27.96-30.57-55.27-61.67-80.55-94.5-24.4-31.69-47.21-64.44-65.73-100-.48-.93-1.13-1.77-1.96-3.06-8.94,8.13-19.36,12.14-31.39,12.66.8,1.76,1.16,2.79,1.7,3.72,8.34,14.25,16.14,28.86,25.2,42.63,16.19,24.63,35.13,47.18,54.88,69.01,7.29,8.06,15.38,15.38,22.74,23.38,9.83,10.69,19.52,21.52,28.87,32.62,29.62,35.14,63.96,65.42,98.44,95.51,15.98,13.95,32.87,26.85,49.33,40.25,18.44,15.02,36.59,30.42,55.36,45.01,28.53,22.17,57.49,43.77,86.27,65.61.8.6,1.69,1.08,2.53,1.62ZM1020.78,565.08c-2.57,1.41-4.44,2.42-6.3,3.46-137.03,76.63-274.07,153.25-411.1,229.88-1.58.88-3.14,1.83-4.8,2.54-1.81.78-3.64.76-4.73-1.24-1.11-2.02-.06-3.54,1.59-4.59,2.14-1.36,4.39-2.56,6.6-3.8,137.35-76.8,274.71-153.6,412.06-230.41,1.71-.95,3.34-2.04,5.15-3.16-.56-2.13-1.05-3.98-1.6-6.1-1.94,1.04-3.54,1.88-5.12,2.76-16.81,9.35-33.63,18.7-50.44,28.07-119.09,66.33-238.17,132.65-357.26,198.97-1.74.97-3.45,2.2-5.33,2.66-1.12.28-2.92-.34-3.74-1.2-1.29-1.35-.81-3.16.66-4.29,1.43-1.1,3.05-1.95,4.63-2.83,94.34-52.57,188.68-105.13,283.03-157.68,43.6-24.29,87.21-48.59,130.83-72.85,2.74-1.52,5.44-2.91,4.41-7.37-141.69,77.05-283.18,153.99-425.07,231.15-.94,14.92-2.79,30.27-3.48,46.49,2.8-1.51,4.71-2.49,6.58-3.55,132.38-74.54,264.76-149.09,397.14-223.63,7.75-4.36,15.43-8.87,23.28-13.04,2.86-1.52,4.03-3.36,3.4-6.47-.18-.88-.19-1.79-.39-3.77ZM980.37,605.57c-.22-.3-.44-.6-.66-.9-1.41.74-2.84,1.44-4.22,2.22-124.31,70-248.61,140.01-372.93,209.99-4.02,2.26-8.21,4.22-12.78,6.55-.16,10.2-2.58,20.87-1.71,32.61,2.59-1.3,4.49-2.2,6.35-3.2,130.17-69.47,260.34-138.94,390.51-208.43,1.92-1.02,3.87-2.02,5.66-3.25,1.38-.95,2.52-2.25,3.77-3.39-.23-.41-.46-.82-.7-1.24-1.79.53-3.64.9-5.35,1.62-8.36,3.53-16.67,7.16-25,10.74-1.17.5-2.31,1.08-3.51,1.47-1.87.6-3.73.54-4.67-1.51-.93-2.01.06-3.5,1.82-4.53.78-.46,1.63-.81,2.46-1.17,8.96-3.96,17.9-7.96,26.88-11.87,6.52-2.84,11.6-1.69,16.27,3.72,6.6-3.52,13.27-7.07,20-10.66-4.9-13.8-3.62-27.57-3.15-42.2-8.23,4.65-15.62,8.79-22.95,13.03-.88.51-1.56,1.51-2.11,2.42-9.39,15.67-22.43,26.94-38.57,35.75-69.46,37.91-138.58,76.44-207.82,114.75-44.31,24.51-88.62,49.03-132.92,73.55-2.81,1.55-5.84,2.86-7.55,5.79,1.33,2.04,2.92,1.51,4.43.78,1.96-.94,3.86-2.02,5.77-3.06,95.67-52.02,191.33-104.05,287-156.07,1.43-.78,2.87-1.56,4.35-2.25,1.86-.86,3.63-.72,4.77,1.14,1.22,1.98.21,3.55-1.46,4.6-2.46,1.54-5.03,2.89-7.58,4.28-96.11,52.33-192.23,104.65-288.34,157-2.99,1.63-6.06,2.47-9.4,1.62-6.1-1.54-8.58-7.66-4.84-12.7,1.65-2.22,4.13-4.05,6.6-5.41,83.5-46.28,167.05-92.47,250.58-138.7,33.03-18.28,65.95-36.76,99.1-54.82,8.66-4.72,15.55-11.08,21.91-18.28ZM1025.4,630.99c-1.09.41-1.77.58-2.38.91-23.38,12.45-46.77,24.9-70.12,37.41-1.21.65-2.4,1.67-3.13,2.82-5.08,7.89-12.19,13.26-20.49,17.37-6.01,2.97-12.11,5.89-17.67,9.59-9.52,6.32-19.05,12.74-27.83,20.01-8.42,6.97-17.7,11.9-27.79,15.66-3.33,1.24-6.62,2.63-9.88,3.93,1.4,1.67,3.03,2.85,3.49,4.37.51,1.7-.06,3.72-.18,5.9,1-.4,1.83-.65,2.6-1.04,26.69-13.6,52.94-27.98,78.26-44.02,5.21-3.3,10.61-6.3,16.03-9.23,2.04-1.1,4.36-1.86,6.64-2.33,3.04-.62,6.07.72,7.13,2.83,1.32,2.64.51,5.08-1.34,7.01-2.5,2.61-5.14,5.12-7.95,7.39-18.55,15.03-39.01,27.18-59.93,38.48-16.91,9.13-34.4,17.17-51.5,25.97-9.02,4.64-17.73,9.9-26.62,14.8-10.16,5.6-20.34,11.18-30.58,16.63-6.56,3.49-13.35,6.56-19.87,10.12-9.55,5.2-18.83,10.91-28.45,15.98-14.92,7.87-30.26,14.98-45.01,23.15-16.66,9.23-32.83,19.34-49.27,28.98-10.33,6.06-20.77,11.93-31.14,17.92-1.6.93-3.08,2.08-4.61,3.12,9-.48,16.65-4.08,24.11-8.26,5.85-3.28,11.84-6.33,17.7-9.59,10.62-5.91,21.22-11.83,31.76-17.87,6.61-3.79,12.96-8.03,19.66-11.66,20.26-10.98,40.49-22.02,60.97-32.56,38.56-19.86,77.19-39.55,114.75-61.28,7.38-4.27,15.16-7.88,23.6-9.61,2.39-.49,5.22-.7,7.37.15,1.8.72,2.92,3.17,4.49,5.03,14.22-7.13,28.62-14.35,43.11-21.61-4.2-4.69-4.23-7.93.11-11.79,2-1.78,4.45-3.12,6.85-4.34,6.63-3.36,13.32-6.61,20.03-9.79,1.78-.85,3.7-1.6,5.63-1.91,4.7-.76,7.46,1.06,9.09,5.64.21.58.45,1.15.77,1.96,11.6-5.42,22.75-10.57,32.24-18.66-.89-5.14-1.9-10.27-2.65-15.43-.65-4.49-.74-9.06-1.55-13.51-1.51-8.41-1.44-16.59,1.91-24.6,1.78-4.26,2.35-8.73,1.62-14.02ZM949.47,701.91c-.2-.38-.4-.76-.59-1.15-4.94,2.92-9.85,5.88-14.82,8.74-21.07,12.12-42.06,24.39-63.26,36.27-22.32,12.5-44.78,24.74-67.3,36.87-18.83,10.15-37.82,20-56.77,29.93-20.56,10.78-41.33,21.17-61.7,32.31-20.85,11.41-41.4,23.36-61.91,35.38-10.63,6.23-20.91,13.07-31.29,19.72-1.32.85-2.93,2-3.35,3.35-1.32,4.19-2.13,8.54-3.17,12.96,6.43-1.01,12.98-2.04,19.54-3.08-1.1-.99-2.14-1.07-3.17-1.21-2.46-.33-4.64-1.15-5.51-3.74-.89-2.66-.12-5.05,1.69-7.05.83-.92,1.89-1.7,2.96-2.33,28.87-17.13,57.67-34.38,86.67-51.3,20.79-12.13,43.6-20.5,63.68-34.04,4.78-3.22,10.24-5.44,15.43-8.06,9.88-4.98,20.17-9.27,29.59-14.99,19.87-12.07,40.19-23.31,61.08-33.43,20.1-9.74,39.93-19.89,58.99-31.57,11.63-7.13,22.5-15.25,33.23-23.6ZM898.89,760.38c-2.2.46-3.13.48-3.91.84-8.39,3.86-16.96,7.39-25.09,11.73-18.73,9.99-37.14,20.6-55.89,30.56-24.36,12.94-48.93,25.48-73.4,38.21-2.5,1.3-5.16,2.49-6.37,6.69,3.76-1.4,6.86-2.29,9.7-3.68,5.53-2.71,10.91-5.7,16.35-8.58,16.21-8.56,32.45-17.05,48.6-25.72,8.31-4.46,16.32-9.5,24.71-13.82,18.7-9.64,37.57-18.98,56.34-28.49,3.2-1.62,6.3-3.48,8.97-7.74ZM685.23,812.61c-2.41,1.05-3.71,1.51-4.91,2.15-11.69,6.21-23.36,12.45-35.04,18.68-18.08,9.64-36.13,19.34-54.27,28.86-3.08,1.61-4.95,3.47-4.58,7.09.12,1.17.02,2.37.02,4.1,2.04-.95,3.53-1.53,4.92-2.31,16.79-9.34,33.61-18.62,50.33-28.09,8.83-5.01,17.51-10.29,26.18-15.57,6.2-3.77,11.69-8.43,17.35-14.92ZM763.09,770.57c12.92-4.18,25.59-9.06,37.26-16.01,7.35-4.37,14.71-8.57,22.82-11.36,1.69-.58,3.45-1.33,4.83-2.43,6.05-4.84,13-7.79,20.19-10.41,6.29-2.3,12.43-5.03,18.57-7.71,1.97-.86,3.84-2.05,5.57-3.35,7.4-5.55,14.74-11.18,22.08-16.8.87-.67,1.63-1.49,2.44-2.23-.19-.25-.38-.51-.57-.76-44.4,23.69-88.79,47.38-133.19,71.08ZM624.9,861.44c-11.6,5.83-23.24,11.59-34.79,17.54-3.43,1.76-3.61,4.45-.78,9.12,14.6-5.1,24.74-16.37,35.57-26.66ZM639.84,903.85c12.16-7,24.04-13.83,36.05-20.75-.82-1.51-1.32-2.43-1.97-3.61-2.72,1.51-5.21,2.95-7.75,4.29-9.63,5.07-19.27,10.12-28.93,15.15-.65.34-1.44.41-2.32.65,2.28,1.97,3.36,2.92,4.92,4.27ZM704.95,801.61c.2.47.4.94.61,1.41,2.78-1.02,5.62-1.88,8.31-3.08,6.44-2.88,12.74-6.07,19.23-8.85,6.38-2.73,12.19-6.03,16.3-13.21-15.38,8.21-29.91,15.97-44.45,23.73ZM558.06,758.78c.08-.36.16-.72.24-1.08-4.61-3.45-9.15-7.01-13.85-10.33-4.5-3.19-8.94-4.33-15.62-4.02,9.08,5.54,17.16,10.54,25.35,15.36.97.57,2.57.08,3.88.08ZM583.55,930.79c8.63-3.74,17.23-7.46,25.84-11.18-6.31.46-12.43,1.08-18.42,2.31-2.69.55-5.32,2.06-7.62,3.65-1.97,1.36-1.68,3.39.21,5.22ZM552.02,732.26c-.17.31-.35.63-.52.94,11.97,8.12,23.9,16.32,36.35,23.92,1.48-3.13-.39-3.84-1.95-4.78-10.26-6.19-20.5-12.41-30.76-18.59-.98-.59-2.08-1-3.12-1.49ZM558.14,747.27c-.32.36-.65.73-.97,1.09,7.15,5.57,14.55,10.75,22.79,14.56.22-.35.45-.71.67-1.06-7.5-4.87-14.99-9.73-22.49-14.6ZM520.63,719.92c3.65,6.36,9.09,10.19,16.23,11.51-5.41-3.84-10.82-7.67-16.23-11.51ZM799.06,768.36c6.12.65,10.45-1.94,12.57-7.98-4.19,2.66-8.38,5.32-12.57,7.98ZM354.37,586.52c.34-.41.68-.82,1.03-1.23-4.84-4.25-9.68-8.5-14.52-12.75-.3.34-.6.68-.9,1.02,4.8,4.32,9.59,8.64,14.39,12.96ZM564.72,764.96c4.09,4.29,7.53,5.96,12.28,5.89-4-2.46-7.05-6.01-12.28-5.89ZM786.25,774.99c-3.85,1.28-7.12,3.38-10.13,7.14,5.19-1.57,6.35-2.37,10.13-7.14ZM754,793.35c-4.13,2.3-8.25,4.6-12.38,6.9,5.2-.32,9.42-2.45,12.38-6.9ZM968.72,725.08c-5.07.66-7.86,1.93-11.04,5,4.5-.01,7.62-2.39,11.04-5ZM985.1,718.02c-.3-.58-.61-1.17-.91-1.75-2.65,1.44-5.31,2.89-7.96,4.33.23.45.46.89.69,1.34,2.73-1.31,5.46-2.61,8.19-3.92ZM538.14,722.47c-.21.33-.41.66-.62.99,2.42,1.28,4.15,3.7,7.39,3.65-2.26-1.55-4.51-3.1-6.77-4.65ZM619.27,913.37c.22.3.45.6.67.9,1.81-.88,3.97-1.24,4.52-4.02-1.73,1.04-3.46,2.08-5.2,3.12ZM731.67,804.59c.08.24.15.48.23.72.61-.14,1.26-.2,1.83-.44.65-.27,1.24-.7,1.85-1.07-.14-.24-.27-.47-.41-.71-1.17.5-2.33,1-3.5,1.5Z"></path><path class="cls-1" d="M415.15,770.7c5.77,4.65,11.28,9.7,17.37,13.89,18.86,12.98,36.78,27.19,54.66,41.45,7.5,5.98,15.73,11.06,23.62,16.56,7.59,5.29,15.21,10.54,22.71,15.96,2.33,1.68,4.24,3.92,6.46,5.76,3.06,2.54,6.14,5.07,9.37,7.37,3.54,2.52,7.32,4.72,10.89,7.19,1.32.92,2.54,2.1,3.53,3.37,3.15,4.06,1.42,8.51-3.7,9.1-5.79.67-11.12-1.21-16.16-3.9-1.8-.96-2.16-2.7-2.13-4.67.02-1.57.2-3.66-.68-4.64-4.16-4.68-6.72-10.71-12.01-14.41-9.96-6.96-20.1-13.69-29.92-20.84-11.44-8.33-22.63-17-33.92-25.54-6.8-5.15-13.53-10.39-20.36-15.5-14.39-10.77-28.76-21.56-43.25-32.2-18-13.21-36.09-26.32-54.2-39.38-6.92-4.99-13.78-9.91-19.76-16.16-5.11-5.34-11.47-9.47-17.04-14.4-16.85-14.93-33.58-30-50.38-44.99-1.89-1.69-3.79-3.43-5.93-4.76-16.2-10.12-31.5-21.42-46.07-33.78-4.81-4.08-10.31-7.4-15.68-10.77-7.69-4.84-15.33-9.68-21.77-16.22-8.83-8.97-18.75-16.6-29.46-23.2-10.75-6.62-19.87-15.21-28.92-23.89-10.61-10.18-20.77-20.82-32.71-29.55-8.93-6.52-17.85-13.15-26.08-20.52-9.44-8.46-18.11-17.78-27.09-26.75-1.78-1.77-3.42-3.68-5.07-5.46-3.54,1.8-6.59,3.38-9.67,4.89-1.3.64-2.65,1.22-4.03,1.64-2.04.62-4.25.72-5.08-1.66-.84-2.44,1.13-3.53,3.04-4.38,3.61-1.61,7.22-3.24,11.49-5.16-1.62-2.12-2.84-3.62-3.95-5.19-2.33-3.27-1.48-5.87,2.44-6.93,3.85-1.04,7.79-1.76,11.67-2.66,1.57-.37,3.11-.87,5.35-1.5-1.7-1.36-2.88-2.38-4.13-3.3-4.84-3.54-9.72-7.01-14.54-10.57-1.77-1.3-2.84-3.06-1.38-5.13,1.49-2.11,3.44-1.58,5.26-.31,2.09,1.45,4.17,2.91,6.21,4.43,22.28,16.58,45.44,31.97,66.61,50.03,4.14,3.54,8.54,6.81,12.46,10.57,14.98,14.36,31.45,26.87,47.81,39.57,14.48,11.24,28.49,23.11,42.33,35.13,10.17,8.83,20.52,17.35,31.9,24.56,22.91,14.53,43.87,31.61,64.75,48.83,10.19,8.4,21.41,15.54,31.93,23.55,29.18,22.19,60.57,41.4,88.07,65.87,7.29,6.49,15.38,12.18,23.57,17.52,10.53,6.87,20.28,14.65,30.11,22.43,11.38,9,23.21,17.45,35.14,25.71,12.69,8.78,25.79,16.95,38.57,25.59,5.4,3.66,10.5,7.79,15.62,11.85,3,2.37,3.58,4.23,2.33,5.86-1.28,1.67-2.97,1.3-6.16-.94-10.11-7.08-20.09-14.34-30.44-21.06-24.69-16.01-49.36-32.01-71.53-51.52-3.26-2.87-6.84-5.44-10.55-7.69-13.24-8.04-25.55-17.31-37.18-27.5-13.69-11.98-28.36-22.66-43.23-33.1-12.03-8.45-23.59-17.59-35.83-25.72-15-9.97-29.18-21-43.04-32.41-15.86-13.06-31.92-25.79-49.1-37.06-4.1-2.69-8.26-5.3-12.21-8.2-6.72-4.94-13.68-9.66-19.87-15.22-23.41-21.01-48.14-40.35-73.06-59.5-4.75-3.65-9.37-7.5-13.72-11.61-20.64-19.5-43.15-36.67-66.06-53.37-2.43-1.77-4.58-2.37-7.49-1.45-4.27,1.35-8.67,2.29-13.84,3.61,4.57,3.77,8.59,7.1,12.62,10.4,5.62,4.59,11.54,8.86,16.83,13.8,8.56,7.98,18.15,14.45,27.83,20.9,7.84,5.23,15.48,10.78,22.98,16.49,7.51,5.72,14.64,11.93,22.13,17.68,3.72,2.86,7.73,5.42,11.85,7.67,13.77,7.52,26.31,16.59,38.02,27.09,12.29,11.01,25.26,21.28,38.27,31.45,38.05,29.74,77.25,58.01,114.32,89.01,7.65,6.4,15.78,12.24,23.86,18.11,17.62,12.81,35.18,25.71,53.09,38.1,11.18,7.73,23.05,14.46,34.44,21.89,5.76,3.76,11.58,7.64,16.63,12.26,9.44,8.65,19.65,16.05,30.84,22.21,21.22,11.68,40.82,25.75,59.94,40.55,5.16,3.99,10.67,7.52,16.1,11.16,4.34,2.91,4.81,5.7,1.28,10.52-1.04-.46-2.23-.83-3.25-1.46-3.24-2.01-6.54-3.95-9.58-6.24-18.89-14.18-38.82-26.79-58.98-39.03-18.67-11.33-36.15-24.3-53.59-37.36-7.55-5.65-15.06-11.47-23.13-16.31-15.34-9.21-28.99-20.52-42.82-31.73-12.64-10.24-26.12-19.44-39.24-29.1-.25.28-.49.57-.74.85,2.05,1.75,4.04,3.6,6.17,5.25,26.32,20.27,52.21,41.1,79.47,60.15,19.64,13.73,39.26,27.5,58.43,41.86,15.85,11.88,31.92,23.36,48.68,33.91,8.75,5.5,17.18,11.52,25.75,17.33.74.5,1.66,1.05,1.97,1.8.38.9.63,2.39.15,2.98-.66.8-2.2,1.55-3.12,1.33-1.71-.41-3.32-1.42-4.84-2.4-14.77-9.57-29.8-18.79-44.2-28.9-18.12-12.71-35.63-26.3-53.6-39.24-10.14-7.3-20.68-14.06-31.05-21.06-1.49-1.05-2.99-2.1-4.48-3.16-1.49-1.05-2.98-2.09-4.48-3.14-1.46-1.08-2.92-2.15-4.39-3.23-1.1-1.09-2.2-2.17-3.3-3.26-.24.33-.48.65-.72.98,1.37.72,2.75,1.45,4.12,2.17,1.43,1.11,2.86,2.22,4.29,3.33,1.41,1.13,2.83,2.26,4.24,3.4,1.43,1.12,2.86,2.24,4.28,3.36ZM297.6,678.98c-.87-.95-1.73-1.89-2.6-2.84-.26.31-.53.61-.79.92,1.17.6,2.33,1.2,3.5,1.8.85,1.1,1.54,2.36,2.56,3.26,3.96,3.46,8.02,6.82,12.06,10.19,6.83,5.69,14.05,10.98,20.37,17.18,4.69,4.6,9.58,8.83,14.9,12.61,6.5,4.63,13.02,9.23,19.55,13.82.93.66,1.98,1.15,2.97,1.72-.98-2-2.43-3.29-3.95-4.49-8.28-6.5-16.66-12.86-24.85-19.47-12.84-10.37-25.53-20.92-38.34-31.33-1.63-1.33-3.59-2.26-5.39-3.37ZM202.44,602.82c-9.7-10.76-20.8-19.76-32.09-28.59-20.85-16.31-41.7-32.65-62-49.63-11.57-9.68-23.46-18.83-35.94-27.26-.82-.55-1.75-.95-2.63-1.42,1.12,1.99,2.7,3.32,4.36,4.53,4.84,3.51,10.04,6.61,14.51,10.54,9.93,8.74,19.54,17.85,29.19,26.9,8.21,7.69,16.25,15.58,25.88,21.54,11.78,7.28,22.68,15.66,32.45,25.47,7.62,7.66,16.91,12.87,26.26,17.93ZM297.73,668.15c-.35.26-.54.33-.62.48-.04.07.09.3.2.39.89.68,1.8,1.34,2.7,2.01.13-.18.26-.37.39-.55-.9-.79-1.81-1.57-2.67-2.32Z"></path><path class="cls-1" d="M567.48,938.23c.07,3.72-2.37,5.65-5.32,4.84-2.23-.62-4.52-1.59-6.35-2.98-9.55-7.22-18.96-14.63-28.43-21.96-3.58-2.77-6.95-5.88-10.82-8.17-8.58-5.08-17.42-9.74-26.15-14.58-20.23-11.22-38.77-24.89-57.12-38.89-9.65-7.36-19.87-14.02-30.04-20.67-26.47-17.32-51.18-37.01-76.33-56.12-22.69-17.24-46.04-33.62-68.95-50.57-12.99-9.61-25.77-19.49-38.49-29.45-18.29-14.33-35.97-29.49-54.78-43.11-15.92-11.52-30.82-24.22-46.21-36.34-22.67-17.87-45.54-35.5-68.2-53.37-13.4-10.57-26.58-21.41-39.84-32.17-.97-.78-2.14-1.7-2.46-2.79-.38-1.24-.4-3.13.32-4,.68-.81,2.51-.79,3.85-.86.63-.03,1.34.52,1.94.91,7.74,5.01,16.44,8.56,23.16,15.14.77.76,1.7,1.36,2.6,1.97,19.12,12.99,36.68,27.88,53.7,43.5,7.33,6.73,15.61,12.44,23.56,18.48,10.12,7.7,20.23,15.38,29.14,24.54,11.2,11.52,24.29,20.79,37.45,29.8,17.4,11.92,34.01,24.83,50.55,37.87,14.54,11.47,29.53,22.35,44.27,33.56,19.22,14.63,38.36,29.35,57.56,44,17.18,13.1,34.19,26.44,51.67,39.14,13.36,9.7,27.1,18.91,41.07,27.72,18.15,11.44,35.53,23.9,52.58,36.88,5.32,4.05,10.93,7.89,16.86,10.95,17.81,9.21,34.57,19.92,50.3,32.36,4.81,3.8,10.28,6.75,15.28,10.32,1.66,1.18,2.8,3.08,3.63,4.02Z"></path><path class="cls-1" d="M22.38,481.68c-5.1,1.66-9.74,3.2-14.4,4.69-3.14,1-5.1.27-5.68-2.03-.53-2.11.6-3.68,3.47-4.63,3.08-1.02,6.19-1.93,9.75-3.03-.64-1.23-1.1-2.12-1.57-3-.92-1.73-.5-3.53.99-4.29,1.19-.61,3.02-.38,4.44,0,.92.24,1.56,1.45,2.39,2.16,8.84,7.53,17.69,15.03,26.53,22.55,2.35,2,4.73,3.98,6.99,6.07,13.08,12.06,26.03,24.26,39.21,36.21,9.81,8.9,19.98,17.33,31.65,23.89,5.95,3.35,11.57,7.58,16.64,12.18,21.93,19.9,44.25,39.28,69.31,55.26,9.83,6.27,18.29,14.22,26.71,22.28,12.97,12.41,26.28,24.41,41.16,34.7,11.16,7.72,21.21,17.02,31.77,25.6,3.24,2.63,6.39,5.4,9.83,7.75,14.07,9.64,28.35,18.96,42.3,28.76,6.21,4.36,12.12,9.25,17.65,14.45,9.84,9.25,20.34,17.53,31.99,24.35,9.13,5.35,17.43,11.72,25.01,19.13,8.21,8.02,17.41,14.8,27.7,20.02,9.81,4.98,17.9,12.35,26.4,19.14,8.49,6.79,16.18,14.63,26.09,19.52,1.74.86,3.05,2.31,1.83,4.39-1.14,1.94-3.04,1.92-4.77.92-4.07-2.36-8.3-4.55-12.03-7.37-8.1-6.14-15.77-12.85-23.92-18.91-6.38-4.74-13.07-9.13-19.91-13.19-10.21-6.06-19.37-13.37-28.18-21.28-5.78-5.19-11.82-10.3-18.42-14.32-14.51-8.83-27.8-19.05-40.1-30.74-4.82-4.58-10.44-8.4-15.97-12.15-23.45-15.86-46.98-31.56-68.17-50.52-6.98-6.25-15.22-11.1-22.86-16.61-7.94-5.74-15.94-11.4-23.74-17.32-3.16-2.4-5.9-5.36-8.79-8.11-8.4-8.02-16.57-16.3-25.25-24-4.44-3.94-9.61-7.16-14.75-10.2-16-9.46-30.87-20.42-44.44-33.1-7.02-6.56-13.74-13.45-20.65-20.13-1.29-1.24-2.81-2.29-4.35-3.2-18.65-11.01-36.5-23.13-52.2-38.15-15.21-14.54-30.27-29.25-45.41-43.88-1.3-1.25-2.66-2.43-4.24-3.87Z"></path><path class="cls-1" d="M498.08,870.66c1.18,1.04,2.29,2.17,3.55,3.09,13.5,9.83,27.02,19.62,40.53,29.43.15.11.3.21.44.32,2.65,2.22,3.55,4.49,2.11,5.92-2.15,2.12-3.91.41-5.72-.85-16.69-11.6-33.34-23.25-50.13-34.71-6.89-4.7-14.09-8.95-21.13-13.45-16.12-10.3-30.54-22.76-45.15-35.02-6.93-5.82-14.36-11.14-22.03-15.95-17.43-10.93-33.38-23.85-49.8-36.12-22.68-16.96-45.33-33.96-67.8-51.2-10.94-8.39-21.37-17.46-32.19-26.02-8.68-6.87-17.67-13.34-26.37-20.18-12.83-10.1-25.92-19.92-38.2-30.66-21.46-18.78-43.56-36.75-65.93-54.42-14.69-11.61-29.78-22.59-45.27-33.08-8.25-5.59-15.91-12.06-23.87-18.09-9.83-7.44-19.7-14.82-29.56-22.22-.56-.42-1.21-.71-2.13-1.25-1.72,1.37-3.4,2.7-5.08,4.04-.99.79-1.95,1.64-2.99,2.36-1.47,1.02-3.11,1.39-4.42-.08-1.31-1.47-.83-3.09.43-4.39,1.14-1.17,2.44-2.17,3.64-3.28,1.05-.96,2.08-1.97,3.23-3.07-1.73-1.89-3.29-3.6-5-5.47-1.81,1.08-3.09,2.2-4.56,2.6-1.19.33-3.03.27-3.85-.45-1.43-1.25-.9-3.04.46-4.28,1.2-1.1,2.47-2.17,3.87-2.99,3.76-2.2,7.57-4.29,11.41-6.33,1.1-.58,2.42-1.26,3.56-1.14,1.24.14,3.03.91,3.39,1.85.35.93-.43,2.94-1.35,3.58-2.15,1.5-4.67,2.46-8.44,4.32,2.08,1.45,3.44,2.33,4.71,3.3,2.74,2.09,5.33,4.4,8.18,6.33,15.63,10.59,30.12,22.69,45.27,33.92,11.37,8.43,23.4,15.98,34.64,24.56,16.74,12.77,33.25,25.85,49.49,39.25,18.9,15.6,37.15,31.99,56.15,47.45,13.79,11.22,28.49,21.3,42.53,32.21,13.61,10.58,26.68,21.87,40.38,32.34,29.57,22.6,59.39,44.87,89.12,67.25,2.46,1.86,4.94,3.73,7.57,5.32,19,11.53,36.24,25.34,53.17,39.7,10.07,8.54,21.38,15.61,32.2,23.26,1.28.9,2.94,1.25,4.43,1.85,3.66,2.4,7.33,4.8,10.99,7.2,1.89,1.13,3.78,2.26,5.68,3.38l-.21-.17Z"></path><path class="cls-1" d="M27.81,400.31c-3.45,2.35-6.89,4.7-10.35,7.03-.9.6-1.79,1.44-2.78,1.6-.93.15-2.31-.14-2.88-.79-.58-.65-.8-2.13-.46-2.96.45-1.1,1.45-2.09,2.45-2.82,3.96-2.89,8.02-5.63,12.03-8.46,2.28-1.61,4.17-1.2,6.38.46,15.88,11.88,30.85,24.77,44.32,39.37,10.53,11.41,22.87,20.71,35.36,29.79,20.29,14.75,38.93,31.5,58.29,47.38,40.43,33.15,80.64,66.61,122.68,97.75,1.75,1.3,3.52,2.59,5.1,4.08,8.76,8.26,19.33,14.05,28.85,21.28,8.81,6.7,17.7,13.29,26.65,19.81,3.96,2.88,8.06,5.57,12.23,8.15,7.14,4.42,13.7,9.56,19.55,15.57,10.07,10.34,21.63,18.7,33.59,26.73,10.07,6.75,19.54,14.49,28.79,22.35,7.52,6.39,15.29,12.24,24.03,16.81,16.17,8.46,31.19,18.43,44.16,31.47,4.54,4.56,10.36,7.88,15.7,11.6,3.23,2.25,4.2,3.57,3.16,5.39-1.06,1.85-2.71,1.86-6.23.06-6.68-3.42-12.72-7.78-18.02-13.05-10.92-10.85-23.45-19.52-36.95-26.71-11.93-6.35-22.87-13.84-33.04-22.82-8.81-7.78-18.5-14.64-28.24-21.26-10.7-7.28-21.05-14.88-30.13-24.13-6.65-6.78-14.04-12.55-22.08-17.62-5.82-3.67-11.17-8.07-16.78-12.06-9.6-6.83-19.34-13.49-28.85-20.44-6.15-4.49-11.99-9.42-18.02-14.08-20.97-16.22-42.15-32.16-62.88-48.67-25.14-20.02-50.6-39.72-74.64-61.01-20.59-18.23-42.69-34.37-64.33-51.17-9.93-7.71-19.05-16.26-27.67-25.39-11.75-12.44-24.55-23.66-38.99-33.26Z"></path><path class="cls-1" d="M492.61,867.45c-3.66-2.4-7.33-4.8-10.99-7.2-1.82-1.47-3.64-2.94-5.46-4.41-1.12-.91-2.59-1.63-3.25-2.81-.6-1.07-.86-3.01-.27-3.88.6-.86,2.48-1.27,3.72-1.13,1.13.12,2.19,1.17,3.21,1.91,11.63,8.42,24.04,15.47,36.96,21.75,14.3,6.96,26.56,16.91,38.32,27.48,3.21,2.88,3.5,4.58,1.84,6.37-1.69,1.82-3.13,1.24-6.14-1.73-2.57-2.54-5.42-4.8-8.22-7.09-12.87-10.48-27.1-18.73-42.15-25.62-.63-.29-1.39-.28-2.09-.42l.21.17c-1.89-1.13-3.78-2.26-5.68-3.38Z"></path><path class="cls-1" d="M549.38,806.43c1.42,1.08,2.83,2.16,4.25,3.24,2.18,2.12,4.45,4.17,6.52,6.39,1.72,1.85,3.33,3.83,4.79,5.89,1.08,1.53.97,3.4-.84,4.14-1.03.42-2.92.09-3.78-.65-2.33-1.99-4.04-4.77-6.5-6.53-8.11-5.8-16.24-11.59-24.74-16.79-7.26-4.44-15.06-7.98-22.56-12.04-7.88-4.26-14.87-9.73-21.21-16.05-.64-.64-1.68-1.22-1.81-1.96-.25-1.45-.46-3.28.23-4.38.44-.69,2.63-.69,3.86-.35,1.12.31,2.09,1.4,2.98,2.3,7.34,7.47,16.04,13.02,25.28,17.79,10.97,5.66,22.07,11.06,32,18.52.4.3,1.02.33,1.53.49Z"></path><path class="cls-2" d="M142.17,147.46C296.5,100.95,450.5,54.54,605.03,7.96c.71,1.86,1.45,3.64,2.09,5.47,11.1,31.68,21.81,63.51,33.35,95.03,22.66,61.9,54.02,119.31,91.25,173.57,33.81,49.28,72.04,94.85,115.78,135.67,34.52,32.21,71.52,61.14,113.65,82.86,14.49,7.47,29.71,13.53,44.59,20.22,1.79.81,3.59,1.59,5.95,2.64-2.19,1.24-3.74,2.16-5.32,3-136.46,72.75-272.93,145.48-409.33,218.34-4.53,2.42-7.89,2.5-12.38-.24-32.16-19.59-62.39-41.83-92-65.06-57.7-45.28-108.91-97.13-156.49-152.73-44.72-52.25-82.49-109.18-113.81-170.37-15.55-30.38-31.27-60.68-46.05-91.43-16.62-34.58-27.31-71.09-32.5-109.15-.36-2.65-1.04-5.25-1.66-8.31ZM218.51,269.82c2.5-.82,4.41-1.38,6.28-2.06,38.7-14.07,77.4-28.16,116.1-42.23,82.86-30.13,165.72-60.25,248.58-90.38,1.7-.62,3.57-1.08,4.95-2.15.94-.73,1.7-2.44,1.57-3.61-.2-1.88-1.97-2.56-3.74-2.22-1.77.34-3.5.96-5.2,1.57-121.91,44.31-243.82,88.63-365.72,132.95-1.36.49-3,.78-3.94,1.73-.97.99-1.79,2.73-1.64,4.02.1.93,1.89,1.68,2.77,2.37ZM608.96,244.32c-7.45.44-14.76,1.35-21.81,4.2-19.33,7.81-38.81,15.23-58.09,23.14-19.12,7.85-38.08,16.11-57.1,24.21-8.18,3.48-16.31,7.08-24.52,10.49-9.05,3.76-18.13,7.43-27.25,10.99-5.73,2.24-11.49,4.48-17.38,6.25-6.97,2.1-13.71,4.57-20.26,7.82-10.71,5.32-21.64,10.22-32.59,15.02-7.14,3.13-14.5,5.75-21.73,8.65-1.34.54-2.78,1.11-3.79,2.07-.78.74-1.6,2.5-1.24,3.13.6,1.02,2.08,1.82,3.32,2.08.9.19,2.02-.63,3.04-1.02,5.58-2.17,11.09-4.53,16.74-6.47,13.93-4.79,27.4-10.56,40.32-17.68,4.41-2.43,9.29-4.03,14.05-5.79,8.32-3.08,16.8-5.74,25.05-9.01,15.01-5.95,29.94-12.09,44.8-18.41,8.51-3.62,16.7-7.98,25.22-11.6,17.7-7.52,35.5-14.77,53.28-22.1,2.01-.83,4.1-1.45,6.14-2.21,10.53-3.93,21.14-7.66,31.55-11.88,6.29-2.55,12.55-4.69,19.42-4.72,2.53,0,5.07-.36,7.59-.68,2.04-.26,3.4-1.41,3.3-3.6-.1-2.24-1.6-3.12-3.68-3.1-1.45.01-2.9.15-4.35.23ZM763.89,416.21c0-2.35-1.75-3.95-3.68-3.63-1.03.17-2,.79-2.97,1.26-5.06,2.41-10.06,4.95-15.18,7.21-6.97,3.08-14.06,5.86-21.04,8.91-20.77,9.06-40.22,21-61.83,28.25-5.73,1.92-10.56,5.67-14.4,10.43-2.35,2.91-5.21,5.03-8.65,6.38-8.27,3.25-16.57,6.42-24.82,9.73-2.17.87-4.28,1.98-6.21,3.28-1.72,1.15-3.08,2.85-1.59,5.05,1.34,1.98,3.09.98,4.87.46,4.49-1.32,9.05-2.43,13.59-3.61,6.3-1.64,12.72-2.92,18.87-5.01,5.92-2.02,10.94-5.61,14.31-11.18,2.02-3.34,4.94-5.86,8.59-7.28,5.06-1.98,10.12-4.03,15.33-5.55,13.71-4,26.46-9.77,38.08-18.23,4.63-3.37,10.13-5.62,15.39-8.03,4.44-2.04,9.37-3.11,13.63-5.43,5.54-3.01,10.68-6.77,15.89-10.35.94-.65,1.4-2,1.85-2.66ZM794.01,442.28c-4.93,1.26-9.15,2.28-13.34,3.42-10.88,2.96-21.3,7.46-30.79,13.23-7.33,4.46-14.72,8.49-22.59,11.7-5.75,2.35-11.06,5.24-15.94,9.17-3.77,3.04-8.03,5.69-12.45,7.68-8.41,3.8-17.1,6.99-25.66,10.46-14.09,5.71-28.19,11.42-42.27,17.16-1.17.48-2.32,1.06-3.4,1.71-13.24,8.01-27.2,14.46-41.8,19.56-2.02.71-4.06,1.74-5.68,3.09-.85.71-1.4,2.63-1.09,3.71.55,1.91,2.38,1.97,4.07,1.29,9.58-3.84,19.41-7.19,28.68-11.67,14.67-7.09,28.84-15.18,44.35-20.5,7.69-2.64,15.13-6,22.72-8.96,13-5.07,26.14-9.78,37.42-18.43,3.83-2.94,8.15-5.39,12.55-7.4,8.56-3.92,17.56-6.89,24.87-13.19,1.47-1.26,3.42-2.09,5.28-2.74,4.78-1.65,9.62-3.15,14.47-4.59,5.04-1.49,10.2-2.6,15.14-4.33,2.65-.93,5.19-2.57,7.33-4.42.85-.74.86-3.01.5-4.39-.22-.82-1.89-1.27-2.38-1.56ZM558.27,392.14c.11-3.18-1.7-4.81-4.52-4.07-5.22,1.37-10.39,3.09-15.41,5.09-5.72,2.27-11.25,5-16.87,7.52-7.26,3.25-14.52,6.53-21.8,9.73-3.47,1.53-7.02,2.87-10.51,4.35-4.48,1.91-9.15,3.51-13.37,5.89-9.02,5.08-17.94,10.25-27.98,13.15-1.73.5-3.39,1.29-5.02,2.08-17.74,8.68-35.46,17.4-53.2,26.08-1.12.55-2.35.85-3.53,1.29-4.15,1.55-7.95,3.72-10.44,7.44-.73,1.09-.84,3.47-.12,4.41.71.93,2.88,1.18,4.31.98,1.31-.19,2.47-1.4,3.72-2.13,7.49-4.4,14.82-9.13,22.53-13.1,10.14-5.23,20.58-9.9,30.92-14.75,4.26-2,8.46-4.29,12.93-5.69,10.65-3.35,20.33-8.61,29.89-14.21,2.95-1.73,6.09-3.36,9.36-4.24,5.84-1.59,11.25-3.99,16.48-6.93,2.69-1.5,5.32-3.35,8.23-4.17,14.35-4.05,26.77-12.95,41.36-16.39,1.31-.31,2.35-1.76,3.05-2.31ZM461.83,570.72c1.71-.73,4.39-1.47,6.62-2.92,5.78-3.76,11.52-7.61,16.97-11.83,7.58-5.87,15.81-10.13,25.18-12.37,7.08-1.69,13.8-4.2,19.42-9.27,6.79-6.12,14.72-10.56,23.19-14.02,4.37-1.78,8.72-3.59,13.05-5.47,4.06-1.76,5.41-3.53,4.51-5.66-.94-2.24-3.05-2.59-7.12-.92-7.22,2.96-14.17,6.81-21.62,8.89-15.13,4.23-28.61,12.44-43.47,17.21-2.89.93-5.66,2.53-8.19,4.26-10.94,7.48-21.76,15.12-32.63,22.69-1.84,1.28-2.72,2.86-1.95,5.12.84,2.45,2.42,4.01,6.04,4.29ZM514.26,364.57c1.01-.5,1.8-.9,2.61-1.28,1.97-.92,3.95-1.81,5.91-2.73,11.3-5.34,22.58-10.72,33.91-16,3.61-1.68,7.23-3.46,11.04-4.55,14.07-4.03,27.91-8.8,42.88-9.28,10.6-.34,19.95-5.45,27.89-12.34,5.02-4.36,10.72-6.21,16.84-8.11,6.51-2.03,12.57-5.51,18.78-8.46,1.81-.86,2.81-2.47,1.86-4.49-1.08-2.29-3.02-2.33-5.08-1.38-1.48.68-2.91,1.48-4.39,2.17-3.94,1.83-7.78,3.96-11.87,5.38-8.04,2.79-16.26,5.04-24.31,7.8-3.04,1.04-5.99,2.6-8.68,4.37-6.9,4.54-14.19,7.73-22.42,9.24-19.12,3.52-37.91,8.19-54.74,18.62-3.38,2.09-7.08,3.67-10.72,5.31-5.61,2.54-11.33,4.86-16.92,7.44-1.75.81-3.4,2.03-4.78,3.4-.56.55-.6,2.14-.23,2.97.36.81,1.53,1.27,2.41,1.93ZM475.04,341.72c2.36-.43,4.04-.52,5.55-1.06,6.99-2.49,14.02-4.92,20.89-7.73,8.55-3.5,17.04-7.18,25.4-11.12,6.05-2.85,11.84-6.24,17.74-9.41,3.19-1.71,6.26-3.67,9.56-5.12,12.62-5.53,25.3-10.93,37.97-16.32,12.68-5.39,25.27-10.95,38.95-13.59,5.11-.99,10-3.2,14.97-4.9,1.95-.67,3.08-2.02,2.53-4.16-.56-2.21-2.33-2.68-4.28-2.26-1.94.42-3.81,1.15-5.73,1.7-5.39,1.57-10.79,3.08-16.16,4.7-5.02,1.52-10.16,2.82-14.99,4.83-19.59,8.13-39.1,16.46-58.6,24.8-2.48,1.06-4.7,2.72-7.09,4-6.38,3.41-12.69,6.96-19.2,10.1-7.01,3.39-14.15,6.55-21.35,9.52-8.02,3.31-16.18,6.3-24.28,9.41-.84.32-2.02.26-2.54.83-.87.96-1.98,2.39-1.8,3.42.17,1.01,1.81,1.77,2.48,2.35ZM699.86,365.36c-1.11-1.12-2.75-1.56-4.31-1.32-.28.04-.52.09-.76.14-5.3,1.2-10,3.6-13.24,8.01-3.77,5.14-8.54,7.16-14.89,7.12-11.07-.07-21.07,4.21-30.03,10.13-6.33,4.18-12.83,6.45-20.17,7.24-6.9.74-13.6,2.43-19.82,5.54-2.9,1.45-5.7,3.22-8.22,5.25-2.66,2.14-3.04,5.51-1.3,7.13,1.64,1.54,5.27,1.07,7.42-.99.39-.37.59-.98,1.02-1.26,1.91-1.28,3.73-2.9,5.85-3.63,3.24-1.11,6.65-1.88,10.06-2.29,10.83-1.31,20.89-4.8,29.85-10.95,4.04-2.77,8.3-4.35,12.97-5.21,4.1-.76,8.18-1.71,12.32-2.22,7.68-.95,14.3-3.51,18.97-10.18,2.55-3.64,6.19-6.1,10.68-7.04.71-.15,1.67-.18,2.04-.64.93-1.16,2.3-2.62,2.16-3.8-.04-.37-.28-.72-.6-1.04ZM802.32,474.24c-.19-3.1-1.85-4.56-4.55-4.66-4.49-.16-7.97,2.1-11.18,4.89-1.78,1.54-3.3,3.55-5.31,4.63-14.54,7.78-29.16,15.42-43.79,23.03-16.41,8.54-32.88,16.99-49.29,25.53-1.59.83-3.22,1.82-4.42,3.11-.67.72-1.07,2.72-.6,3.27.76.86,2.34,1.08,3.61,1.38.43.1,1.01-.35,1.49-.59,8.58-4.33,17.16-8.67,25.74-13.01,25.73-13.03,51.46-26.04,77.17-39.1,2.9-1.48,5.81-3.02,8.46-4.9,1.33-.95,2.08-2.73,2.68-3.57ZM383.98,374.15c-6.54-5.38-9.88-5.43-16.6-.34-2.6,1.97-4.97,4.25-7.62,6.15-1.56,1.13-3.4,2.39-5.21,2.54-3.82.33-7.02,1.78-9.94,4-7.22,5.49-14.38,11.06-21.54,16.63-.71.55-1.62,1.18-1.82,1.94-.29,1.09-.46,2.69.13,3.41.59.72,2.3,1.08,3.29.8,1.32-.38,2.45-1.49,3.61-2.36,6.54-4.88,13.03-9.85,19.64-14.62,1.72-1.24,3.84-2.68,5.8-2.72,5.21-.1,8.78-2.87,12.42-5.98,2.96-2.53,6.19-4.74,9.24-7.04,5.24,5.88,6.47,6.12,13.07,3.07.99-.46,1.97-.93,2.93-1.43,10.65-5.46,21.3-10.92,31.94-16.38.8-.41,1.87-.71,2.29-1.38.61-.98,1.24-2.42.92-3.35-.32-.93-1.8-2.07-2.74-2.04-1.73.06-3.54.68-5.11,1.47-9.39,4.74-18.71,9.6-28.07,14.4-2.24,1.15-4.52,2.2-6.62,3.23ZM694.31,333.57c.21-3.06-1.54-4.6-4.41-4.3-11.94,1.23-23.22,4.42-32.48,12.5-4.21,3.68-9.01,5.96-14.14,7.9-3.88,1.47-8.13,2.68-11.32,5.16-9.32,7.27-19.57,11.53-31.39,12.32-4.7.31-8.52,3.02-11.89,6.13-2.15,1.99-2.1,4.69-.27,6.2,1.87,1.55,4.4,1.16,5.8-1.45,1.48-2.75,3.81-3.78,6.5-4.34,2.3-.48,4.66-.73,7.01-.93,8.36-.72,15.97-3.6,22.59-8.61,5.15-3.91,10.83-6.46,16.76-8.82,4.49-1.79,9.14-3.86,12.8-6.92,7.95-6.64,16.83-10.53,27.01-11.79,1.62-.2,3.31-.33,4.79-.94,1.18-.48,2.08-1.64,2.64-2.11ZM285.7,201.11c.12-6.72-1.61-13.12-5.69-18.72-7.96-10.93-21.37-9.8-26.87,2.52-4.85,10.87-3.71,21.56,2.95,31.52.89,1.34,2.07,2.54,3.3,3.58,7.09,6.03,15.77,5.07,21.36-2.36,3.63-4.83,4.99-10.38,4.95-16.54ZM544.02,478.52c.01-3.31-2.04-4.62-5.2-3.92-7.83,1.72-15.47,3.88-21.99,8.94-4.31,3.35-8.93,6.22-14.32,7.63-6.23,1.63-11.6,4.95-17.02,8.33-5.04,3.15-10.44,5.78-15.89,8.17-5.14,2.25-10.67,3.61-15.79,5.9-3.77,1.68-7.23,4.1-10.67,6.42-1.37.93-2.21,2.63-1,4.29,1.34,1.85,3.22,1.64,4.79.39,7.03-5.58,15.65-7.48,23.85-10.29,6.91-2.37,13.4-5.36,19.43-9.6,3.81-2.67,8.09-4.99,12.5-6.42,6.67-2.15,12.74-5.18,18.29-9.37,3.97-3,8.37-5.03,13.21-6.18,2.29-.55,4.63-1.02,6.8-1.91,1.32-.54,2.33-1.81,3.02-2.37ZM361.05,173.83c-.11-9.06-3.19-14.59-8.84-18.65-5.97-4.29-14.34-4.09-19.24.23-2.04,1.79-3.06,3.78-2.36,6.7,2.87,11.94,5.66,23.9,8.26,35.9.39,1.82.23,3.7,2.18,4.56,2.29,1.01,4.37.14,5.96-1.48,7.99-8.15,13.03-17.74,14.04-27.26ZM371.72,152.89c-.03,8.99,3.15,16.99,8.02,21.81,3.8,3.76,7.83,4.18,12.25,1.28,11.47-7.53,14.29-26.11,5.56-36.71-3.13-3.8-7.03-5.53-12.01-4.54-1.39.27-2.89.47-4.25.22-2.67-.49-4.05.93-5.24,2.91-3.07,5.12-4.19,10.74-4.32,15.03ZM215.6,204.22c3.33-2.12,6.36-4.06,9.4-5.99,1.84-1.17,3.72-2.26,5.52-3.49,1.49-1.02,2.28-2.51,1.4-4.22-.97-1.89-2.7-2.31-4.64-1.51-.83.34-1.61.82-2.38,1.3-10.3,6.37-20.36,13.09-29.92,20.54-1,.78-2.02,1.56-2.9,2.46-1.4,1.43-2.06,3.12-.5,4.79,1.39,1.49,2.94.97,4.37-.14,1.29-1,2.56-2.02,3.89-2.97,3.21-2.29,6.45-4.55,9.99-7.04.69,2.13,1.24,3.63,1.68,5.16,2.97,10.46,5.91,20.92,8.87,31.38.39,1.39.73,2.82,1.3,4.15.71,1.66,2.03,2.56,3.91,2.17,1.96-.41,2.63-1.87,2.43-3.66-.16-1.42-.58-2.83-.99-4.22-3.14-10.6-6.3-21.19-9.45-31.78-.66-2.22-1.27-4.46-1.97-6.93ZM552.23,477.71c1.16-.34,1.86-.52,2.53-.75,12.19-4.22,23.92-9.27,34.16-17.4,2.92-2.32,6.5-3.92,9.97-5.4,10.14-4.32,20.37-8.42,30.58-12.57,2.11-.86,3.51-2.16,2.7-4.52-.82-2.4-2.92-2.61-4.95-1.85-4.4,1.63-8.75,3.42-13.09,5.21-5.01,2.07-10.04,4.1-14.96,6.37-4.74,2.18-9.83,4.01-13.94,7.1-9.51,7.16-19.61,12.95-31.03,16.37-1.2.36-2.68.66-3.39,1.52-.78.94-1.26,2.58-1.03,3.75.18.89,1.67,1.52,2.44,2.16ZM551.55,84.52c.55,1.84.91,2.84,1.15,3.86,2.06,8.81,4.07,17.64,6.17,26.44,1.03,4.31,2.56,5.75,4.93,4.97,2.06-.68,2.54-2.61,1.55-6.63-2.16-8.79-4.36-17.57-6.51-26.36-.38-1.54-.62-3.12-.98-4.95,2.19-1.06,4.1-2.01,6.04-2.92,2.79-1.3,5.6-2.54,8.38-3.87,1.98-.95,3.39-2.38,2.32-4.72-1.09-2.37-3.16-2.01-5.15-1.35-.86.28-1.67.71-2.48,1.1-8.98,4.3-17.96,8.59-26.92,12.94-1.62.79-3.21,1.7-4.65,2.77-1.66,1.22-2.23,2.99-.94,4.74,1.2,1.63,2.79,1.08,4.37.27,4.01-2.05,8.08-3.99,12.73-6.27ZM458.22,472.46c-1.88.41-3.12.67-4.35.96-4.75,1.11-9.45,2.6-14.26,3.28-9.38,1.32-16.94,5.68-23.72,12.11-5.24,4.97-10.95,9.43-18.06,11.7-2.71.86-3.4,4.14-1.3,5.47,1.04.65,2.91.86,4.01.37,3.46-1.53,6.82-3.34,10.06-5.3,5.96-3.6,10.66-9.29,17.89-10.81.33-.07.59-.42.92-.56,4.12-1.8,8.16-3.81,12.38-5.3,4.42-1.56,9.03-2.6,13.54-3.92,1.38-.41,2.76-.9,4.03-1.57,1.65-.85,2.44-2.46,1.62-4.09-.55-1.08-1.99-1.72-2.76-2.34ZM552.93,427.44c-7.79.69-14.34,1.35-19.83,6.2-3.06,2.7-7,4.47-10.7,6.38-4.5,2.32-9.14,4.39-13.76,6.49-6.1,2.77-12.24,5.47-18.36,8.2-1.32.59-2.88.9-3.89,1.82-.76.69-1.35,2.35-1.04,3.22.32.89,1.86,1.91,2.83,1.87,1.76-.07,3.57-.68,5.21-1.4,12.44-5.48,24.84-11.03,37.24-16.57.66-.29,1.3-.67,1.87-1.11,5.76-4.54,11.73-8.58,19.56-8.18.17,0,.35-.08.53-.12,2.14-.52,4.08-1.63,3.28-4.03-.45-1.35-2.33-2.22-2.94-2.76ZM515.15,100.61c.55-5.02,3.76-7.17,6.73-9.53,1.59-1.26,2.28-2.96,1.03-4.78-1.27-1.86-3.37-1.87-4.8-.62-2.95,2.61-6.15,5.23-8.19,8.51-3.7,5.94-1.92,10.62,4.45,13.7,2.61,1.26,5.35,2.26,7.94,3.57,4.19,2.12,4.95,4.19,2.74,8.35-2.31,4.34-5.44,7.63-11.04,7.38-1.04-.05-2.73,1.17-3.11,2.19-.64,1.73.57,3.21,2.34,3.66,1.35.34,2.88.47,4.25.21,5.95-1.1,10.12-4.72,13.01-9.85,4.27-7.59,2.63-14.47-5.37-18.02-3.29-1.46-6.5-3.1-9.98-4.77ZM762,569.19c2.28-.33,3.57-.4,4.79-.71,7.94-2.01,15.52-4.85,22.59-9.13,6.18-3.74,12.69-6.95,19.03-10.44,1.89-1.04,3.98-1.99,5.42-3.5.91-.96,1.42-3.16.95-4.33-.47-1.19-2.42-2.56-3.66-2.5-2.24.1-4.67.81-6.61,1.96-4.05,2.39-7.89,5.16-11.71,7.91-8,5.77-16.33,10.8-26.16,12.85-1.75.37-3.39,1.25-5.11,1.82-1.7.57-3.33,1.63-2.61,3.42.52,1.29,2.34,2.06,3.08,2.65ZM455.91,145.51c-1-2.67-1.87-4.65-2.47-6.7-1.91-6.42-3.67-12.89-5.59-19.31-.62-2.07-1.41-4.13-2.46-6.01-.83-1.48-2.31-2.4-4.14-1.49-1.8.9-1.85,2.3-1.3,4.13,2.09,6.93,3.97,13.93,6.06,20.86,1.2,3.98,2.49,7.96,4.06,11.81,1.59,3.92,3.31,4.76,7.22,3.55,5.7-1.77,11.35-3.73,16.96-5.79,2.84-1.05,3.93-3.41,2.79-5.49-1.25-2.27-3.08-1.89-5.16-1.12-5.08,1.88-10.22,3.59-15.96,5.58ZM414.77,411.22c1.25-.1,3.15.09,4.84-.42,6.92-2.09,12.14-7.08,17.89-11.1.74-.51.95-2.92.39-3.82-.54-.88-2.38-1.26-3.65-1.28-.95-.01-1.96.83-2.86,1.42-3.03,1.99-5.89,4.29-9.07,5.99-2.3,1.23-5.05,2.47-7.53,2.35-6.36-.31-11.78,1.66-16.74,5.31-3.5,2.58-6.95,5.24-10.31,8.01-3,2.47-3.59,4.22-2.34,5.82,1.3,1.67,3.08,1.38,6.16-.93,3.77-2.83,7.49-5.73,11.36-8.41,3.36-2.32,7.08-3.66,11.84-2.93ZM448.45,398.73c4.37-.13,6.86-1.7,8.5-4.18,2.26-3.41,5.54-5.07,9.11-6.51,3.19-1.29,6.36-2.65,9.46-4.14,1.28-.61,2.72-1.43,3.41-2.57.63-1.04.78-2.82.31-3.91-.34-.79-2.04-1.27-3.17-1.34-.99-.06-2.03.65-3.05,1.01-4.43,1.58-8.84,3.2-13.29,4.72-5.04,1.72-9.64,4.19-13.57,7.82-1.62,1.49-3.6,3.38-2.22,5.55,1.12,1.77,3.47,2.77,4.52,3.56ZM486.45,590.14c1.83,1.07,4.12.97,5.99-.03,1.53-.82,3.05-1.65,4.5-2.58,3.64-2.34,7.19-4.81,10.74-7.28,1.78-1.24,3.66-2.43,5.11-3.99.67-.72.91-2.52.48-3.4-.43-.87-1.92-1.34-3.03-1.68-.58-.17-1.39.28-2.06.53-5.93,2.27-11.9,4.44-17.75,6.9-1.77.74-3.62,2.02-4.65,3.56-.99,1.47-1.58,3.74-1.24,5.44.23,1.18.93,1.95,1.91,2.52ZM854.38,520.37c-.6.03-.78.04-.96.05-9.74.44-16.57,6.7-23.81,12.06-.63.47-.79,2.53-.3,3.3.52.81,2.28,1.57,3.14,1.28,3.05-1.04,6.18-2.19,8.86-3.94,3.44-2.25,6.92-3.77,11.08-3.9,2.14-.07,4.32-.56,6.37-1.2,1.82-.57,3.43-2.04,2.79-4.03-.41-1.26-1.99-2.39-3.31-3.02-1.24-.59-2.83-.46-3.86-.59ZM493.4,137.81c-1.01-4.7-1.88-8.58-2.67-12.48-1.36-6.75-2.6-13.51-4.01-20.25-.39-1.88-1.49-3.46-3.77-3.03-2.37.45-2.53,2.37-2.19,4.26,1.85,10.52,3.74,21.03,5.68,31.54.36,1.97,1.7,3.63,3.72,3.05,1.35-.38,2.3-2.14,3.24-3.09ZM685.38,415.61c2.1-1.64,1.66-5.06-.85-5.94-.01,0-.03,0-.04-.01-.85-.29-2.09.32-3.06.73-5.83,2.45-11.74,4.73-17.39,7.54-3.51,1.75-6.72,4.19-9.85,6.59-1.71,1.31-2.38,3.42-.59,5.21,1.68,1.68,3.36.6,4.72-.75,3.59-3.55,8.14-5.21,12.76-6.91,4.57-1.68,9-3.76,13.39-5.88.32-.15.62-.35.91-.58ZM734.58,396.31c.18-3.57-2.1-4.76-5.57-3.72-6.75,2.02-13.58,3.87-20.19,6.29-2.95,1.08-5.59,3.19-8.11,5.16-1.51,1.18-1.99,3.22-.55,4.84,1.55,1.75,3.3,1.08,4.68-.42,2.47-2.67,5.67-3.63,9.07-4.5,5.78-1.47,11.5-3.2,17.16-5.08,1.49-.49,2.67-1.93,3.5-2.57ZM547.77,553.75c-1.17-1-2.8-1.24-4.26-.76-5.66,1.85-10.67,4.02-14.9,7.63-.86.73-.95,2.98-.56,4.29.17.56,2.63,1.04,3.71.65,4.76-1.73,9.4-3.77,14.06-5.75.65-.28,1.47-.7,1.71-1.26.53-1.23,1.27-2.77.92-3.86-.11-.35-.37-.65-.69-.93Z"></path><path class="cls-2" d="M521.99,711.78c-1.68-1.01-3.46-1.91-5.04-3.06-51.28-37.35-100.24-77.54-147.17-120.21-33.2-30.18-65.55-61.25-96.4-93.84-44.75-47.26-87.17-96.46-123.79-150.41-15.52-22.86-29.78-46.46-41.04-71.76-2.2-4.95-4.15-10.02-6.39-15.47,18.26-7.22,36.16-14.3,54.34-21.48,1.6,4.09,3.04,7.79,4.5,11.48,8.24,20.79,18.54,40.6,28.67,60.5,17.37,34.13,34.45,68.42,53.95,101.42,25.66,43.4,54.91,84.24,87.67,122.55,30.95,36.19,63.48,70.89,98.39,103.3,23.84,22.13,49.16,42.52,74.79,62.52,5.97,4.66,11.83,9.48,17.73,14.23l-.22.23Z"></path><path class="cls-2" d="M502.77,721.99c-.85-.54-1.74-1.02-2.53-1.62-28.79-21.83-57.75-43.44-86.27-65.61-18.78-14.59-36.92-30-55.36-45.01-16.46-13.4-33.35-26.31-49.33-40.25-34.48-30.09-68.82-60.37-98.44-95.51-9.36-11.1-19.05-21.93-28.87-32.62-7.36-8-15.45-15.32-22.74-23.38-19.75-21.83-38.69-44.38-54.88-69.01-9.06-13.78-16.85-28.39-25.2-42.63-.54-.93-.91-1.96-1.7-3.72,12.03-.52,22.45-4.53,31.39-12.66.83,1.29,1.48,2.13,1.96,3.06,18.52,35.57,41.32,68.31,65.73,100,25.28,32.83,52.59,63.93,80.55,94.5,7.56,8.26,13.99,17.62,20.37,26.87,6.76,9.8,14.25,18.78,23.78,25.99,8.48,6.41,15.81,14,21.42,23.02,10.24,16.47,23.24,30.08,39.65,40.52,20.3,12.91,38.17,28.95,56.4,44.5,14.64,12.49,28.87,25.49,43.87,37.53,11.47,9.2,23.48,17.71,33.89,28.18,2.35,2.37,4.68,4.76,7.02,7.14-.23.25-.46.5-.7.75Z"></path><path class="cls-2" d="M1020.78,565.08c.2,1.98.22,2.89.39,3.77.62,3.1-.55,4.95-3.4,6.47-7.85,4.17-15.53,8.67-23.28,13.04-132.38,74.55-264.76,149.09-397.14,223.63-1.87,1.05-3.78,2.04-6.58,3.55.69-16.22,2.54-31.57,3.48-46.49,141.88-77.15,283.38-154.1,425.07-231.15,1.03,4.46-1.67,5.85-4.41,7.37-43.62,24.26-87.22,48.56-130.83,72.85-94.35,52.56-188.69,105.12-283.03,157.68-1.58.88-3.2,1.74-4.63,2.83-1.47,1.13-1.95,2.93-.66,4.29.82.86,2.63,1.48,3.74,1.2,1.88-.47,3.59-1.69,5.33-2.66,119.09-66.32,238.17-132.65,357.26-198.97,16.81-9.36,33.62-18.71,50.44-28.07,1.58-.88,3.18-1.72,5.12-2.76.56,2.12,1.04,3.97,1.6,6.1-1.81,1.12-3.44,2.21-5.15,3.16-137.35,76.81-274.71,153.61-412.06,230.41-2.22,1.24-4.46,2.44-6.6,3.8-1.66,1.06-2.7,2.57-1.59,4.59,1.09,1.99,2.92,2.01,4.73,1.24,1.66-.71,3.22-1.66,4.8-2.54,137.04-76.62,274.07-153.25,411.1-229.88,1.86-1.04,3.73-2.05,6.3-3.46Z"></path><path class="cls-2" d="M980.37,605.57c-6.36,7.19-13.25,13.56-21.91,18.28-33.15,18.06-66.07,36.54-99.1,54.82-83.53,46.23-167.08,92.42-250.58,138.7-2.46,1.36-4.95,3.19-6.6,5.41-3.74,5.05-1.27,11.16,4.84,12.7,3.34.84,6.41,0,9.4-1.62,96.11-52.35,192.22-104.67,288.34-157,2.55-1.39,5.13-2.74,7.58-4.28,1.67-1.04,2.69-2.62,1.46-4.6-1.15-1.85-2.92-2-4.77-1.14-1.48.69-2.91,1.47-4.35,2.25-95.67,52.02-191.33,104.04-287,156.07-1.91,1.04-3.81,2.11-5.77,3.06-1.51.73-3.1,1.25-4.43-.78,1.7-2.94,4.74-4.24,7.55-5.79,44.3-24.52,88.61-49.04,132.92-73.55,69.24-38.31,138.36-76.85,207.82-114.75,16.13-8.8,29.18-20.08,38.57-35.75.54-.91,1.23-1.91,2.11-2.42,7.33-4.24,14.73-8.38,22.95-13.03-.46,14.63-1.75,28.4,3.15,42.2-6.73,3.59-13.4,7.14-20,10.66-4.67-5.41-9.74-6.56-16.27-3.72-8.98,3.9-17.92,7.9-26.88,11.87-.83.37-1.68.72-2.46,1.17-1.76,1.03-2.75,2.53-1.82,4.53.95,2.04,2.8,2.1,4.67,1.51,1.2-.38,2.35-.97,3.51-1.47,8.33-3.59,16.65-7.21,25-10.74,1.71-.72,3.56-1.09,5.35-1.62.23.41.46.82.7,1.24-1.25,1.14-2.39,2.44-3.77,3.39-1.79,1.23-3.74,2.22-5.66,3.25-130.17,69.48-260.34,138.96-390.51,208.43-1.86.99-3.76,1.9-6.35,3.2-.87-11.74,1.55-22.41,1.71-32.61,4.56-2.33,8.76-4.29,12.78-6.55,124.32-69.98,248.62-139.99,372.93-209.99,1.38-.78,2.82-1.48,4.22-2.22.22.3.44.6.66.9Z"></path><path class="cls-2" d="M1025.4,630.99c.72,5.29.16,9.76-1.62,14.02-3.35,8.01-3.43,16.19-1.91,24.6.8,4.45.9,9.03,1.55,13.51.75,5.16,1.75,10.29,2.65,15.43-9.49,8.09-20.64,13.24-32.24,18.66-.32-.81-.56-1.38-.77-1.96-1.64-4.57-4.39-6.4-9.09-5.64-1.93.31-3.85,1.06-5.63,1.91-6.71,3.19-13.41,6.43-20.03,9.79-2.41,1.22-4.86,2.56-6.85,4.34-4.34,3.87-4.31,7.1-.11,11.79-14.49,7.26-28.89,14.48-43.11,21.61-1.57-1.86-2.68-4.32-4.49-5.03-2.15-.85-4.98-.64-7.37-.15-8.44,1.72-16.22,5.34-23.6,9.61-37.56,21.73-76.19,41.42-114.75,61.28-20.48,10.55-40.72,21.58-60.97,32.56-6.69,3.63-13.05,7.87-19.66,11.66-10.54,6.04-21.15,11.97-31.76,17.87-5.86,3.26-11.85,6.31-17.7,9.59-7.46,4.18-15.11,7.78-24.11,8.26,1.53-1.05,3.01-2.19,4.61-3.12,10.37-6,20.81-11.87,31.14-17.92,16.44-9.64,32.61-19.74,49.27-28.98,14.75-8.18,30.08-15.28,45.01-23.15,9.62-5.07,18.9-10.77,28.45-15.98,6.52-3.56,13.31-6.63,19.87-10.12,10.24-5.45,20.42-11.03,30.58-16.63,8.89-4.9,17.6-10.15,26.62-14.8,17.1-8.79,34.59-16.84,51.5-25.97,20.92-11.3,41.37-23.45,59.93-38.48,2.81-2.27,5.45-4.78,7.95-7.39,1.85-1.93,2.66-4.37,1.34-7.01-1.06-2.11-4.09-3.45-7.13-2.83-2.28.47-4.6,1.22-6.64,2.33-5.42,2.93-10.83,5.93-16.03,9.23-25.32,16.04-51.57,30.43-78.26,44.02-.77.39-1.6.65-2.6,1.04.12-2.18.68-4.2.18-5.9-.46-1.53-2.09-2.71-3.49-4.37,3.27-1.31,6.55-2.69,9.88-3.93,10.09-3.76,19.37-8.69,27.79-15.66,8.78-7.27,18.31-13.69,27.83-20.01,5.56-3.69,11.67-6.61,17.67-9.59,8.3-4.11,15.42-9.48,20.49-17.37.74-1.15,1.92-2.17,3.13-2.82,23.35-12.51,46.73-24.96,70.12-37.41.6-.32,1.29-.5,2.38-.91Z"></path><path class="cls-2" d="M949.47,701.91c-10.73,8.35-21.59,16.46-33.23,23.6-19.06,11.68-38.88,21.83-58.99,31.57-20.89,10.12-41.2,21.36-61.08,33.43-9.42,5.72-19.72,10.01-29.59,14.99-5.18,2.61-10.65,4.83-15.43,8.06-20.07,13.54-42.89,21.91-63.68,34.04-28.99,16.92-57.8,34.17-86.67,51.3-1.08.64-2.13,1.41-2.96,2.33-1.82,2-2.58,4.4-1.69,7.05.87,2.59,3.05,3.42,5.51,3.74,1.03.14,2.07.22,3.17,1.21-6.55,1.03-13.11,2.06-19.54,3.08,1.04-4.42,1.85-8.77,3.17-12.96.42-1.34,2.03-2.5,3.35-3.35,10.38-6.65,20.66-13.49,31.29-19.72,20.51-12.01,41.06-23.97,61.91-35.38,20.36-11.14,41.13-21.54,61.7-32.31,18.95-9.93,37.94-19.79,56.77-29.93,22.52-12.13,44.98-24.37,67.3-36.87,21.21-11.88,42.19-24.15,63.26-36.27,4.97-2.86,9.88-5.82,14.82-8.74.2.38.4.76.59,1.15Z"></path><path class="cls-2" d="M898.89,760.38c-2.67,4.26-5.77,6.12-8.97,7.74-18.77,9.51-37.63,18.85-56.34,28.49-8.38,4.32-16.39,9.36-24.71,13.82-16.15,8.67-32.4,17.16-48.6,25.72-5.44,2.88-10.83,5.87-16.35,8.58-2.84,1.39-5.94,2.27-9.7,3.68,1.21-4.2,3.87-5.39,6.37-6.69,24.47-12.73,49.04-25.27,73.4-38.21,18.75-9.96,37.16-20.57,55.89-30.56,8.14-4.34,16.7-7.88,25.09-11.73.78-.36,1.71-.38,3.91-.84Z"></path><path class="cls-2" d="M685.23,812.61c-5.66,6.49-11.15,11.15-17.35,14.92-8.67,5.28-17.35,10.56-26.18,15.57-16.71,9.47-33.54,18.75-50.33,28.09-1.39.77-2.89,1.36-4.92,2.31,0-1.73.1-2.93-.02-4.1-.37-3.62,1.5-5.48,4.58-7.09,18.14-9.52,36.19-19.22,54.27-28.86,11.68-6.23,23.35-12.47,35.04-18.68,1.2-.64,2.49-1.1,4.91-2.15Z"></path><path class="cls-2" d="M763.09,770.57c44.4-23.69,88.79-47.38,133.19-71.08.19.25.38.51.57.76-.81.75-1.57,1.57-2.44,2.23-7.34,5.62-14.68,11.26-22.08,16.8-1.73,1.29-3.6,2.48-5.57,3.35-6.14,2.69-12.28,5.42-18.57,7.71-7.2,2.63-14.15,5.57-20.19,10.41-1.38,1.1-3.13,1.85-4.83,2.43-8.11,2.79-15.48,6.99-22.82,11.36-11.67,6.95-24.34,11.83-37.26,16.01Z"></path><path class="cls-2" d="M624.9,861.44c-10.82,10.29-20.96,21.56-35.57,26.66-2.83-4.67-2.65-7.35.78-9.12,11.54-5.95,23.18-11.71,34.79-17.54Z"></path><path class="cls-2" d="M639.84,903.85c-1.56-1.35-2.64-2.29-4.92-4.27.88-.24,1.67-.32,2.32-.65,9.65-5.03,19.3-10.08,28.93-15.15,2.55-1.34,5.04-2.78,7.75-4.29.65,1.18,1.15,2.1,1.97,3.61-12.01,6.91-23.89,13.75-36.05,20.75Z"></path><path class="cls-2" d="M704.95,801.61c14.54-7.76,29.07-15.52,44.45-23.73-4.12,7.19-9.92,10.49-16.3,13.21-6.48,2.77-12.79,5.97-19.23,8.85-2.69,1.2-5.54,2.07-8.31,3.08-.2-.47-.4-.94-.61-1.41Z"></path><path class="cls-2" d="M558.06,758.78c-1.31,0-2.91.49-3.88-.08-8.19-4.81-16.27-9.82-25.35-15.36,6.67-.31,11.12.84,15.62,4.02,4.7,3.33,9.24,6.88,13.85,10.33-.08.36-.16.72-.24,1.08Z"></path><path class="cls-2" d="M583.55,930.79c-1.88-1.83-2.18-3.86-.21-5.22,2.3-1.59,4.93-3.09,7.62-3.65,5.99-1.23,12.11-1.85,18.42-2.31-8.6,3.72-17.21,7.45-25.84,11.18Z"></path><path class="cls-2" d="M552.02,732.26c1.04.49,2.14.9,3.12,1.49,10.26,6.18,20.5,12.4,30.76,18.59,1.56.94,3.43,1.65,1.95,4.78-12.45-7.6-24.38-15.8-36.35-23.92.17-.31.35-.63.52-.94Z"></path><path class="cls-2" d="M558.14,747.27c7.5,4.87,14.99,9.73,22.49,14.6-.22.35-.45.71-.67,1.06-8.24-3.81-15.64-8.99-22.79-14.56.32-.36.65-.73.97-1.09Z"></path><path class="cls-2" d="M520.63,719.92c5.41,3.84,10.82,7.67,16.23,11.51-7.14-1.32-12.59-5.15-16.23-11.51Z"></path><path class="cls-2" d="M799.06,768.36c4.19-2.66,8.38-5.32,12.57-7.98-2.12,6.04-6.45,8.63-12.57,7.98Z"></path><path class="cls-2" d="M354.37,586.52c-4.8-4.32-9.59-8.64-14.39-12.96.3-.34.6-.68.9-1.02,4.84,4.25,9.68,8.5,14.52,12.75-.34.41-.68.82-1.03,1.23Z"></path><path class="cls-2" d="M564.72,764.96c5.23-.12,8.27,3.43,12.28,5.89-4.75.07-8.19-1.6-12.28-5.89Z"></path><path class="cls-2" d="M786.25,774.99c-3.78,4.77-4.93,5.57-10.13,7.14,3-3.76,6.28-5.86,10.13-7.14Z"></path><path class="cls-2" d="M754,793.35c-2.97,4.45-7.18,6.58-12.38,6.9,4.13-2.3,8.25-4.6,12.38-6.9Z"></path><path class="cls-2" d="M968.72,725.08c-3.42,2.61-6.54,4.99-11.04,5,3.17-3.07,5.97-4.34,11.04-5Z"></path><path class="cls-2" d="M985.1,718.02c-2.73,1.31-5.46,2.61-8.19,3.92-.23-.45-.46-.89-.69-1.34,2.65-1.44,5.31-2.89,7.96-4.33.3.58.61,1.17.91,1.75Z"></path><path class="cls-2" d="M538.14,722.47c2.26,1.55,4.51,3.1,6.77,4.65-3.24.05-4.97-2.37-7.39-3.65.21-.33.41-.66.62-.99Z"></path><path class="cls-2" d="M526.46,714.94c.5.07,1.12-.01,1.5.24,2.04,1.39,4.02,2.87,5.82,4.61-2.98-.8-5.51-2.26-7.25-4.92,0,0-.07.07-.07.07Z"></path><path class="cls-2" d="M619.27,913.37c1.73-1.04,3.46-2.08,5.2-3.12-.55,2.78-2.71,3.14-4.52,4.02-.22-.3-.45-.6-.67-.9Z"></path><path class="cls-2" d="M731.67,804.59c1.17-.5,2.33-1,3.5-1.5.14.24.27.47.41.71-.61.36-1.2.79-1.85,1.07-.57.24-1.22.3-1.83.44-.08-.24-.15-.48-.23-.72Z"></path><path class="cls-2" d="M522.21,711.56c1.42,1.13,2.83,2.26,4.25,3.39,0,0,.07-.07.07-.07-1.51-1.03-3.02-2.06-4.53-3.09,0,0,.21-.23.21-.23Z"></path><path class="cls-2" d="M202.44,602.82c-9.35-5.06-18.64-10.26-26.26-17.93-9.77-9.82-20.67-18.19-32.45-25.47-9.63-5.96-17.68-13.84-25.88-21.54-9.65-9.05-19.27-18.16-29.19-26.9-4.47-3.93-9.67-7.03-14.51-10.54-1.66-1.21-3.24-2.54-4.36-4.53.88.47,1.81.86,2.63,1.42,12.48,8.43,24.37,17.58,35.94,27.26,20.3,16.99,41.14,33.33,62,49.63,11.3,8.83,22.39,17.83,32.09,28.59Z"></path><path class="cls-2" d="M297.6,678.98c1.8,1.11,3.76,2.04,5.39,3.37,12.81,10.41,25.5,20.96,38.34,31.33,8.19,6.61,16.57,12.98,24.85,19.47,1.52,1.2,2.97,2.49,3.95,4.49-.99-.57-2.04-1.06-2.97-1.72-6.53-4.59-13.05-9.19-19.55-13.82-5.32-3.79-10.21-8.01-14.9-12.61-6.32-6.2-13.55-11.49-20.37-17.18-4.04-3.37-8.1-6.73-12.06-10.19-1.02-.89-1.72-2.16-2.56-3.26l-.11.11Z"></path><path class="cls-2" d="M406.62,763.94c-1.43-1.11-2.86-2.22-4.29-3.33l-.1.11c1.46,1.08,2.92,2.15,4.38,3.23,0,0,0,0,0,0Z"></path><path class="cls-2" d="M410.86,767.33c-1.41-1.13-2.83-2.26-4.24-3.4,0,0,0,0,0,0,1.49,1.05,2.98,2.09,4.48,3.14,0,0-.23.25-.23.25Z"></path><path class="cls-2" d="M415.15,770.7c-1.43-1.12-2.86-2.24-4.28-3.36,0,0,.23-.25.23-.25,1.49,1.05,2.99,2.1,4.48,3.16-.14.15-.29.3-.43.46Z"></path><path class="cls-2" d="M297.7,678.87c-1.17-.6-2.33-1.2-3.5-1.8.26-.31.53-.61.79-.92.87.95,1.73,1.89,2.6,2.84,0,0,.11-.11.11-.11Z"></path><path class="cls-2" d="M297.73,668.15c.86.75,1.77,1.53,2.67,2.32-.13.18-.26.37-.39.55-.9-.67-1.81-1.33-2.7-2.01-.11-.08-.24-.31-.2-.39.08-.14.27-.22.62-.48Z"></path><path class="cls-2" d="M402.33,760.61c-1.37-.72-2.75-1.45-4.12-2.17.24-.33.48-.65.72-.98,1.1,1.09,2.2,2.17,3.3,3.26,0,0,.1-.11.1-.11Z"></path><path class="cls-2" d="M492.61,867.45c1.89,1.13,3.78,2.26,5.68,3.38-1.89-1.13-3.78-2.26-5.68-3.38Z"></path><path class="cls-1" d="M218.51,269.82c-.87-.7-2.66-1.44-2.77-2.37-.14-1.3.67-3.04,1.64-4.02.93-.95,2.58-1.23,3.94-1.73,121.9-44.33,243.81-88.65,365.72-132.95,1.7-.62,3.43-1.23,5.2-1.57,1.77-.34,3.54.34,3.74,2.22.13,1.17-.63,2.88-1.57,3.61-1.38,1.07-3.25,1.53-4.95,2.15-82.86,30.13-165.72,60.25-248.58,90.38-38.7,14.07-77.4,28.16-116.1,42.23-1.87.68-3.78,1.24-6.28,2.06Z"></path><path class="cls-1" d="M608.96,244.32c1.45-.08,2.9-.22,4.35-.23,2.08-.02,3.58.87,3.68,3.1.1,2.19-1.26,3.34-3.3,3.6-2.52.32-5.06.67-7.59.68-6.87.02-13.12,2.17-19.42,4.72-10.41,4.22-21.02,7.95-31.55,11.88-2.04.76-4.13,1.38-6.14,2.21-17.77,7.33-35.58,14.58-53.28,22.1-8.51,3.62-16.71,7.98-25.22,11.6-14.85,6.32-29.79,12.46-44.8,18.41-8.24,3.27-16.72,5.93-25.05,9.01-4.75,1.76-9.64,3.36-14.05,5.79-12.92,7.12-26.39,12.89-40.32,17.68-5.65,1.94-11.16,4.31-16.74,6.47-1.01.39-2.14,1.21-3.04,1.02-1.24-.26-2.72-1.06-3.32-2.08-.37-.62.46-2.39,1.24-3.13,1.01-.96,2.45-1.53,3.79-2.07,7.24-2.9,14.6-5.52,21.73-8.65,10.96-4.8,21.88-9.7,32.59-15.02,6.55-3.25,13.29-5.72,20.26-7.82,5.89-1.77,11.65-4.01,17.38-6.25,9.12-3.57,18.21-7.24,27.25-10.99,8.21-3.41,16.34-7,24.52-10.49,19.02-8.1,37.98-16.36,57.1-24.21,19.28-7.92,38.77-15.33,58.09-23.14,7.04-2.84,14.35-3.76,21.81-4.2Z"></path><path class="cls-1" d="M763.89,416.21c-.44.66-.9,2.01-1.85,2.66-5.21,3.58-10.35,7.34-15.89,10.35-4.27,2.32-9.19,3.39-13.63,5.43-5.26,2.41-10.76,4.66-15.39,8.03-11.62,8.47-24.37,14.23-38.08,18.23-5.21,1.52-10.27,3.57-15.33,5.55-3.65,1.43-6.57,3.95-8.59,7.28-3.37,5.57-8.39,9.16-14.31,11.18-6.15,2.09-12.57,3.37-18.87,5.01-4.53,1.18-9.09,2.29-13.59,3.61-1.78.52-3.54,1.52-4.87-.46-1.49-2.2-.13-3.9,1.59-5.05,1.94-1.3,4.05-2.41,6.21-3.28,8.24-3.31,16.54-6.49,24.82-9.73,3.45-1.35,6.3-3.48,8.65-6.38,3.85-4.76,8.68-8.51,14.4-10.43,21.62-7.26,41.06-19.19,61.83-28.25,6.98-3.05,14.08-5.83,21.04-8.91,5.12-2.26,10.12-4.81,15.18-7.21.97-.46,1.94-1.09,2.97-1.26,1.93-.32,3.69,1.28,3.68,3.63Z"></path><path class="cls-1" d="M794.01,442.28c.49.3,2.16.74,2.38,1.56.36,1.38.36,3.65-.5,4.39-2.13,1.85-4.67,3.49-7.33,4.42-4.95,1.74-10.11,2.84-15.14,4.33-4.85,1.44-9.69,2.94-14.47,4.59-1.86.64-3.82,1.47-5.28,2.74-7.31,6.3-16.32,9.28-24.87,13.19-4.4,2.01-8.72,4.46-12.55,7.4-11.28,8.65-24.42,13.36-37.42,18.43-7.58,2.96-15.02,6.32-22.72,8.96-15.51,5.32-29.68,13.41-44.35,20.5-9.27,4.48-19.09,7.83-28.68,11.67-1.7.68-3.53.62-4.07-1.29-.31-1.09.24-3,1.09-3.71,1.63-1.36,3.66-2.39,5.68-3.09,14.6-5.1,28.56-11.55,41.8-19.56,1.08-.66,2.23-1.24,3.4-1.71,14.08-5.74,28.17-11.45,42.27-17.16,8.56-3.47,17.25-6.66,25.66-10.46,4.42-1.99,8.68-4.64,12.45-7.68,4.88-3.94,10.19-6.83,15.94-9.17,7.87-3.21,15.26-7.25,22.59-11.7,9.49-5.77,19.91-10.27,30.79-13.23,4.19-1.14,8.41-2.16,13.34-3.42Z"></path><path class="cls-1" d="M558.27,392.14c-.69.55-1.74,2-3.05,2.31-14.59,3.43-27.01,12.34-41.36,16.39-2.91.82-5.54,2.66-8.23,4.17-5.24,2.93-10.64,5.34-16.48,6.93-3.27.89-6.41,2.52-9.36,4.24-9.56,5.6-19.23,10.86-29.89,14.21-4.47,1.41-8.66,3.69-12.93,5.69-10.34,4.85-20.77,9.52-30.92,14.75-7.71,3.98-15.04,8.7-22.53,13.1-1.24.73-2.4,1.94-3.72,2.13-1.42.21-3.6-.05-4.31-.98-.72-.94-.61-3.32.12-4.41,2.49-3.71,6.29-5.89,10.44-7.44,1.17-.44,2.41-.74,3.53-1.29,17.74-8.68,35.46-17.4,53.2-26.08,1.63-.8,3.29-1.58,5.02-2.08,10.04-2.9,18.97-8.07,27.98-13.15,4.22-2.38,8.88-3.98,13.37-5.89,3.49-1.48,7.04-2.83,10.51-4.35,7.29-3.2,14.54-6.48,21.8-9.73,5.62-2.52,11.15-5.25,16.87-7.52,5.02-1.99,10.19-3.71,15.41-5.09,2.83-.74,4.63.89,4.52,4.07Z"></path><path class="cls-1" d="M461.83,570.72c-3.62-.29-5.19-1.84-6.04-4.29-.78-2.25.11-3.83,1.95-5.12,10.87-7.57,21.69-15.21,32.63-22.69,2.53-1.73,5.3-3.33,8.19-4.26,14.87-4.78,28.34-12.98,43.47-17.21,7.45-2.09,14.41-5.93,21.62-8.89,4.07-1.67,6.17-1.32,7.12.92.9,2.13-.45,3.9-4.51,5.66-4.33,1.87-8.68,3.68-13.05,5.47-8.47,3.46-16.4,7.9-23.19,14.02-5.63,5.07-12.35,7.58-19.42,9.27-9.37,2.24-17.6,6.5-25.18,12.37-5.45,4.22-11.19,8.07-16.97,11.83-2.22,1.45-4.91,2.19-6.62,2.92Z"></path><path class="cls-1" d="M514.26,364.57c-.88-.66-2.05-1.12-2.41-1.93-.37-.83-.33-2.41.23-2.97,1.37-1.36,3.02-2.58,4.78-3.4,5.59-2.59,11.31-4.9,16.92-7.44,3.63-1.64,7.34-3.22,10.72-5.31,16.83-10.43,35.62-15.09,54.74-18.62,8.23-1.52,15.52-4.71,22.42-9.24,2.69-1.77,5.64-3.33,8.68-4.37,8.05-2.76,16.27-5.01,24.31-7.8,4.09-1.42,7.93-3.55,11.87-5.38,1.48-.69,2.91-1.49,4.39-2.17,2.06-.94,4-.91,5.08,1.38.95,2.02-.05,3.63-1.86,4.49-6.21,2.95-12.27,6.43-18.78,8.46-6.12,1.91-11.82,3.76-16.84,8.11-7.94,6.89-17.3,12-27.89,12.34-14.97.48-28.81,5.24-42.88,9.28-3.8,1.09-7.43,2.87-11.04,4.55-11.33,5.28-22.61,10.67-33.91,16-1.96.93-3.94,1.82-5.91,2.73-.8.38-1.59.78-2.61,1.28Z"></path><path class="cls-1" d="M475.04,341.72c-.67-.58-2.31-1.34-2.48-2.35-.17-1.03.93-2.46,1.8-3.42.52-.57,1.7-.51,2.54-.83,8.11-3.11,16.26-6.1,24.28-9.41,7.2-2.97,14.34-6.13,21.35-9.52,6.51-3.15,12.82-6.69,19.2-10.1,2.39-1.28,4.61-2.94,7.09-4,19.5-8.35,39.01-16.68,58.6-24.8,4.83-2,9.96-3.3,14.99-4.83,5.37-1.63,10.78-3.13,16.16-4.7,1.91-.56,3.79-1.28,5.73-1.7,1.95-.42,3.72.05,4.28,2.26.55,2.14-.58,3.49-2.53,4.16-4.97,1.7-9.85,3.92-14.97,4.9-13.68,2.64-26.27,8.2-38.95,13.59-12.68,5.4-25.36,10.79-37.97,16.32-3.3,1.45-6.37,3.41-9.56,5.12-5.9,3.16-11.69,6.55-17.74,9.41-8.36,3.94-16.85,7.62-25.4,11.12-6.87,2.81-13.89,5.24-20.89,7.73-1.52.54-3.2.63-5.55,1.06Z"></path><path class="cls-1" d="M696.1,363.96c1.07-.15,2.16.13,3.03.78.65.48,1.25,1.04,1.33,1.66.14,1.18-1.23,2.64-2.16,3.8-.37.46-1.33.49-2.04.64-4.49.94-8.13,3.39-10.68,7.04-4.67,6.67-11.29,9.23-18.97,10.18-4.13.51-8.21,1.46-12.32,2.22-4.68.86-8.94,2.44-12.97,5.21-8.96,6.15-19.01,9.64-29.85,10.95-3.4.41-6.82,1.18-10.06,2.29-2.12.73-3.94,2.35-5.85,3.63-.43.29-.63.89-1.02,1.26-2.15,2.06-5.78,2.53-7.42.99-1.74-1.63-1.36-5,1.3-7.13,2.52-2.03,5.32-3.8,8.22-5.25,6.23-3.11,12.93-4.8,19.82-5.54,7.34-.79,13.84-3.06,20.17-7.24,8.96-5.92,18.96-10.2,30.03-10.13,6.35.04,11.12-1.98,14.89-7.12,3.23-4.41,7.93-6.82,13.24-8.01.39-.09.78-.15,1.31-.22Z"></path><path class="cls-1" d="M802.32,474.24c-.61.85-1.35,2.63-2.68,3.57-2.64,1.88-5.55,3.42-8.46,4.9-25.71,13.06-51.44,26.07-77.17,39.1-8.58,4.34-17.16,8.68-25.74,13.01-.48.24-1.06.69-1.49.59-1.28-.3-2.85-.52-3.61-1.38-.48-.54-.08-2.54.6-3.27,1.2-1.29,2.82-2.28,4.42-3.11,16.42-8.54,32.88-16.99,49.29-25.53,14.63-7.61,29.25-15.25,43.79-23.03,2.02-1.08,3.54-3.08,5.31-4.63,3.22-2.79,6.69-5.05,11.18-4.89,2.7.1,4.37,1.56,4.55,4.66Z"></path><path class="cls-1" d="M383.98,374.15c2.11-1.02,4.39-2.08,6.62-3.23,9.36-4.8,18.68-9.66,28.07-14.4,1.57-.79,3.39-1.41,5.11-1.47.94-.03,2.43,1.11,2.74,2.04.32.92-.32,2.37-.92,3.35-.42.67-1.48.97-2.29,1.38-10.64,5.47-21.29,10.93-31.94,16.38-.97.5-1.95.97-2.93,1.43-6.6,3.05-7.83,2.81-13.07-3.07-3.05,2.3-6.28,4.52-9.24,7.04-3.64,3.11-7.21,5.88-12.42,5.98-1.96.04-4.07,1.47-5.8,2.72-6.62,4.78-13.1,9.75-19.64,14.62-1.16.87-2.29,1.98-3.61,2.36-.99.28-2.7-.08-3.29-.8-.59-.72-.42-2.32-.13-3.41.2-.76,1.12-1.39,1.82-1.94,7.16-5.57,14.32-11.14,21.54-16.63,2.92-2.22,6.13-3.67,9.94-4,1.81-.15,3.65-1.42,5.21-2.54,2.64-1.9,5.02-4.18,7.62-6.15,6.72-5.09,10.06-5.04,16.6.34Z"></path><path class="cls-1" d="M694.31,333.57c-.56.47-1.47,1.63-2.64,2.11-1.48.61-3.17.74-4.79.94-10.18,1.26-19.06,5.14-27.01,11.79-3.66,3.05-8.31,5.13-12.8,6.92-5.93,2.36-11.61,4.91-16.76,8.82-6.62,5.02-14.23,7.89-22.59,8.61-2.35.2-4.7.45-7.01.93-2.69.56-5.03,1.59-6.5,4.34-1.41,2.62-3.93,3.01-5.8,1.45-1.83-1.52-1.88-4.21.27-6.2,3.37-3.12,7.19-5.82,11.89-6.13,11.81-.79,22.07-5.05,31.39-12.32,3.18-2.48,7.43-3.69,11.32-5.16,5.13-1.94,9.93-4.22,14.14-7.9,9.26-8.08,20.54-11.27,32.48-12.5,2.88-.3,4.62,1.24,4.41,4.3Z"></path><path class="cls-1" d="M285.7,201.11c.04,6.16-1.33,11.71-4.95,16.54-5.59,7.43-14.26,8.39-21.36,2.36-1.23-1.05-2.4-2.25-3.3-3.58-6.66-9.96-7.8-20.65-2.95-31.52,5.5-12.32,18.9-13.45,26.87-2.52,4.08,5.6,5.81,12,5.69,18.72ZM279.22,202.87c-.48-7.72-1.7-13.16-5.62-17.6-4.42-5.01-9.88-4.56-13.54,1.01-4.92,7.48-3.41,21.68,2.98,27.95,4.35,4.27,9.76,3.9,12.72-1.48,1.95-3.54,2.74-7.72,3.46-9.88Z"></path><path class="cls-1" d="M544.02,478.52c-.68.56-1.7,1.83-3.02,2.37-2.16.89-4.51,1.36-6.8,1.91-4.84,1.15-9.24,3.18-13.21,6.18-5.55,4.19-11.62,7.22-18.29,9.37-4.41,1.42-8.69,3.74-12.5,6.42-6.03,4.23-12.52,7.22-19.43,9.6-8.2,2.81-16.81,4.71-23.85,10.29-1.57,1.25-3.45,1.46-4.79-.39-1.2-1.66-.37-3.36,1-4.29,3.44-2.32,6.9-4.74,10.67-6.42,5.12-2.28,10.65-3.64,15.79-5.9,5.45-2.39,10.86-5.02,15.89-8.17,5.42-3.39,10.78-6.7,17.02-8.33,5.38-1.41,10-4.28,14.32-7.63,6.51-5.06,14.16-7.21,21.99-8.94,3.16-.7,5.21.61,5.2,3.92Z"></path><path class="cls-1" d="M361.05,173.83c-1.02,9.52-6.06,19.12-14.04,27.26-1.59,1.62-3.67,2.49-5.96,1.48-1.95-.86-1.79-2.75-2.18-4.56-2.6-12-5.39-23.96-8.26-35.9-.7-2.91.32-4.91,2.36-6.7,4.91-4.32,13.28-4.51,19.24-.23,5.65,4.06,8.73,9.59,8.84,18.65ZM337.24,159.86c2.42,11.06,4.78,21.87,7.37,33.71,3.97-4.74,6.32-8.99,7.82-13.61.99-3.04,1.88-6.35,1.71-9.49-.44-8.56-8.09-13.62-16.9-10.61Z"></path><path class="cls-1" d="M371.72,152.89c.13-4.28,1.25-9.91,4.32-15.03,1.19-1.98,2.57-3.4,5.24-2.91,1.36.25,2.87.05,4.25-.22,4.98-.98,8.88.74,12.01,4.54,8.73,10.6,5.92,29.18-5.56,36.71-4.43,2.9-8.45,2.48-12.25-1.28-4.87-4.82-8.05-12.83-8.02-21.81ZM383.46,168.26c1.67,1.91,4.59,2.1,6.52.47,6.6-5.57,8.05-17.64,2.25-25.2-1.34-1.75-3.2-2.52-5.28-1.94-3.62,1-6.68,3.1-8.09,6.63-2.42,6.05-.19,14.58,4.59,20.05Z"></path><path class="cls-1" d="M215.6,204.22c.7,2.47,1.31,4.71,1.97,6.93,3.15,10.59,6.31,21.18,9.45,31.78.41,1.38.83,2.79.99,4.22.2,1.79-.47,3.25-2.43,3.66-1.88.39-3.2-.51-3.91-2.17-.57-1.33-.9-2.75-1.3-4.15-2.96-10.46-5.9-20.92-8.87-31.38-.44-1.53-.98-3.04-1.68-5.16-3.54,2.49-6.78,4.75-9.99,7.04-1.33.95-2.6,1.97-3.89,2.97-1.43,1.1-2.98,1.62-4.37.14-1.56-1.67-.9-3.37.5-4.79.88-.9,1.9-1.68,2.9-2.46,9.56-7.45,19.62-14.16,29.92-20.54.77-.48,1.55-.95,2.38-1.3,1.95-.8,3.67-.38,4.64,1.51.88,1.71.09,3.21-1.4,4.22-1.79,1.23-3.68,2.32-5.52,3.49-3.04,1.93-6.07,3.87-9.4,5.99Z"></path><path class="cls-1" d="M552.23,477.71c-.77-.63-2.26-1.26-2.44-2.16-.23-1.17.25-2.81,1.03-3.75.71-.86,2.19-1.16,3.39-1.52,11.42-3.42,21.52-9.21,31.03-16.37,4.11-3.09,9.19-4.92,13.94-7.1,4.92-2.26,9.95-4.3,14.96-6.37,4.34-1.8,8.69-3.58,13.09-5.21,2.03-.75,4.12-.55,4.95,1.85.81,2.36-.59,3.66-2.7,4.52-10.21,4.14-20.44,8.25-30.58,12.57-3.47,1.48-7.05,3.08-9.97,5.4-10.24,8.13-21.97,13.18-34.16,17.4-.68.23-1.37.41-2.53.75Z"></path><path class="cls-1" d="M551.55,84.52c-4.65,2.28-8.72,4.22-12.73,6.27-1.59.81-3.17,1.36-4.37-.27-1.3-1.75-.72-3.52.94-4.74,1.45-1.06,3.03-1.98,4.65-2.77,8.96-4.35,17.94-8.63,26.92-12.94.82-.39,1.63-.82,2.48-1.1,1.99-.66,4.07-1.02,5.15,1.35,1.07,2.34-.33,3.77-2.32,4.72-2.78,1.33-5.59,2.57-8.38,3.87-1.94.91-3.86,1.86-6.04,2.92.36,1.82.6,3.4.98,4.95,2.15,8.79,4.35,17.57,6.51,26.36.99,4.03.51,5.96-1.55,6.63-2.37.78-3.9-.66-4.93-4.97-2.1-8.8-4.11-17.63-6.17-26.44-.24-1.03-.6-2.03-1.15-3.86Z"></path><path class="cls-1" d="M458.22,472.46c.78.62,2.22,1.26,2.76,2.34.82,1.63.03,3.23-1.62,4.09-1.27.66-2.65,1.16-4.03,1.57-4.51,1.33-9.12,2.36-13.54,3.92-4.22,1.49-8.26,3.51-12.38,5.3-.33.14-.59.49-.92.56-7.23,1.52-11.93,7.21-17.89,10.81-3.24,1.96-6.6,3.77-10.06,5.3-1.1.49-2.97.28-4.01-.37-2.11-1.33-1.41-4.61,1.3-5.47,7.12-2.27,12.82-6.73,18.06-11.7,6.78-6.43,14.35-10.79,23.72-12.11,4.81-.68,9.51-2.16,14.26-3.28,1.23-.29,2.47-.54,4.35-.96Z"></path><path class="cls-1" d="M552.93,427.44c.61.54,2.49,1.41,2.94,2.76.8,2.4-1.15,3.51-3.28,4.03-.18.04-.36.13-.53.12-7.83-.4-13.79,3.64-19.56,8.18-.57.44-1.21.82-1.87,1.11-12.41,5.54-24.81,11.1-37.24,16.57-1.64.72-3.45,1.34-5.21,1.4-.97.04-2.51-.98-2.83-1.87-.31-.87.28-2.53,1.04-3.22,1.01-.92,2.57-1.23,3.89-1.82,6.12-2.73,12.26-5.43,18.36-8.2,4.62-2.1,9.26-4.16,13.76-6.49,3.69-1.9,7.64-3.67,10.7-6.38,5.49-4.85,12.04-5.51,19.83-6.2Z"></path><path class="cls-1" d="M515.15,100.61c3.48,1.67,6.69,3.31,9.98,4.77,8.01,3.55,9.64,10.42,5.37,18.02-2.89,5.13-7.06,8.76-13.01,9.85-1.36.25-2.89.13-4.25-.21-1.77-.45-2.98-1.93-2.34-3.66.37-1.01,2.06-2.23,3.11-2.19,5.6.25,8.74-3.03,11.04-7.38,2.21-4.15,1.45-6.23-2.74-8.35-2.59-1.31-5.33-2.3-7.94-3.57-6.37-3.08-8.15-7.76-4.45-13.7,2.04-3.28,5.23-5.91,8.19-8.51,1.42-1.26,3.52-1.24,4.8.62,1.25,1.82.56,3.51-1.03,4.78-2.97,2.36-6.18,4.51-6.73,9.53Z"></path><path class="cls-1" d="M762,569.19c-.73-.59-2.56-1.36-3.08-2.65-.72-1.79.91-2.85,2.61-3.42,1.72-.57,3.36-1.46,5.11-1.82,9.83-2.05,18.16-7.08,26.16-12.85,3.82-2.76,7.66-5.52,11.71-7.91,1.94-1.15,4.37-1.86,6.61-1.96,1.24-.05,3.18,1.32,3.66,2.5.47,1.18-.04,3.37-.95,4.33-1.44,1.52-3.53,2.46-5.42,3.5-6.34,3.49-12.85,6.7-19.03,10.44-7.07,4.28-14.64,7.12-22.59,9.13-1.22.31-2.5.38-4.79.71Z"></path><path class="cls-1" d="M455.91,145.51c5.74-1.99,10.88-3.7,15.96-5.58,2.08-.77,3.91-1.15,5.16,1.12,1.14,2.08.06,4.44-2.79,5.49-5.61,2.06-11.26,4.02-16.96,5.79-3.91,1.21-5.63.37-7.22-3.55-1.56-3.85-2.85-7.83-4.06-11.81-2.09-6.93-3.97-13.93-6.06-20.86-.55-1.82-.51-3.23,1.3-4.13,1.83-.91,3.32.02,4.14,1.49,1.05,1.88,1.84,3.94,2.46,6.01,1.93,6.42,3.69,12.89,5.59,19.31.61,2.05,1.48,4.03,2.47,6.7Z"></path><path class="cls-1" d="M414.77,411.22c-4.76-.74-8.49.6-11.84,2.93-3.87,2.68-7.59,5.58-11.36,8.41-3.08,2.31-4.86,2.6-6.16.93-1.25-1.61-.66-3.36,2.34-5.82,3.36-2.76,6.8-5.43,10.31-8.01,4.96-3.64,10.37-5.62,16.74-5.31,2.48.12,5.23-1.12,7.53-2.35,3.18-1.7,6.04-4,9.07-5.99.9-.59,1.91-1.44,2.86-1.42,1.28.02,3.11.41,3.65,1.28.56.91.35,3.31-.39,3.82-5.76,4.02-10.97,9.01-17.89,11.1-1.69.51-3.59.33-4.84.42Z"></path><path class="cls-1" d="M448.45,398.73c-1.05-.78-3.39-1.78-4.52-3.56-1.38-2.17.6-4.06,2.22-5.55,3.93-3.62,8.52-6.1,13.57-7.82,4.45-1.52,8.86-3.14,13.29-4.72,1.02-.36,2.06-1.07,3.05-1.01,1.13.07,2.83.55,3.17,1.34.48,1.09.32,2.87-.31,3.91-.69,1.14-2.13,1.96-3.41,2.57-3.1,1.49-6.27,2.85-9.46,4.14-3.57,1.44-6.86,3.1-9.11,6.51-1.64,2.48-4.14,4.05-8.5,4.18Z"></path><path class="cls-1" d="M491.75,590.48c-1.21.65-2.65.76-3.94.28-1.67-.61-2.94-1.47-3.27-3.14-.34-1.7.26-3.97,1.24-5.44,1.04-1.55,2.89-2.82,4.65-3.56,5.85-2.46,11.82-4.63,17.75-6.9.67-.26,1.48-.71,2.06-.53,1.12.33,2.6.81,3.03,1.68.44.88.19,2.68-.48,3.4-1.46,1.56-3.34,2.76-5.11,3.99-3.55,2.47-7.1,4.94-10.74,7.28-1.67,1.07-3.43,2-5.19,2.95Z"></path><path class="cls-1" d="M854.38,520.37c1.03.13,2.62,0,3.86.59,1.32.63,2.9,1.76,3.31,3.02.65,1.99-.96,3.46-2.79,4.03-2.05.64-4.23,1.12-6.37,1.2-4.16.14-7.63,1.65-11.08,3.9-2.68,1.75-5.8,2.9-8.86,3.94-.86.29-2.62-.47-3.14-1.28-.49-.77-.34-2.84.3-3.3,7.24-5.35,14.07-11.62,23.81-12.06.18,0,.36-.02.96-.05Z"></path><path class="cls-1" d="M493.4,137.81c-.94.95-1.89,2.7-3.24,3.09-2.02.57-3.35-1.08-3.72-3.05-1.94-10.5-3.83-21.02-5.68-31.54-.33-1.89-.18-3.81,2.19-4.26,2.28-.43,3.38,1.15,3.77,3.03,1.41,6.73,2.65,13.5,4.01,20.25.78,3.9,1.66,7.78,2.67,12.48Z"></path><path class="cls-1" d="M685.45,410.13c1.8,1.11,1.98,3.65.41,5.07-.46.42-.91.75-1.4.99-4.39,2.12-8.82,4.2-13.39,5.88-4.62,1.7-9.17,3.36-12.76,6.91-1.37,1.35-3.04,2.42-4.72.75-1.79-1.78-1.12-3.89.59-5.21,3.13-2.4,6.34-4.84,9.85-6.59,5.65-2.81,11.57-5.09,17.39-7.54.98-.41,2.22-1.01,3.06-.73.33.11.65.27.97.47Z"></path><path class="cls-1" d="M734.58,396.31c-.84.64-2.01,2.07-3.5,2.57-5.66,1.88-11.38,3.61-17.16,5.08-3.4.87-6.6,1.83-9.07,4.5-1.39,1.5-3.13,2.17-4.68.42-1.44-1.62-.96-3.66.55-4.84,2.52-1.97,5.16-4.08,8.11-5.16,6.61-2.42,13.43-4.27,20.19-6.29,3.47-1.04,5.75.15,5.57,3.72Z"></path><path class="cls-1" d="M543.51,552.99c1.46-.48,3.09-.23,4.26.76.32.27.58.58.69.93.35,1.09-.39,2.63-.92,3.86-.24.57-1.07.99-1.71,1.26-4.66,1.98-9.31,4.02-14.06,5.75-1.09.4-3.55-.08-3.71-.65-.38-1.31-.3-3.56.56-4.29,4.23-3.6,9.24-5.78,14.9-7.63Z"></path><path class="cls-2" d="M279.22,202.87c-.72,2.16-1.51,6.34-3.46,9.88-2.96,5.38-8.37,5.75-12.72,1.48-6.38-6.27-7.9-20.47-2.98-27.95,3.66-5.57,9.12-6.01,13.54-1.01,3.92,4.44,5.14,9.88,5.62,17.6Z"></path><path class="cls-2" d="M337.24,159.86c8.81-3.01,16.46,2.04,16.9,10.61.16,3.13-.73,6.45-1.71,9.49-1.5,4.62-3.85,8.88-7.82,13.61-2.59-11.84-4.95-22.65-7.37-33.71Z"></path><path class="cls-2" d="M388.52,169.79c-1.29.81-2.98.6-4.07-.47-5.47-5.37-8.17-14.66-5.59-21.11,1.41-3.54,4.47-5.63,8.09-6.63,2.08-.58,3.94.2,5.28,1.94,6.21,8.09,4.11,21.34-3.71,26.27Z"></path></g></g></g></svg>