<svg xmlns="http://www.w3.org/2000/svg" version="1.0" width="420.000000pt" height="420.000000pt" viewBox="0 0 420.000000 420.000000" preserveAspectRatio="xMidYMid meet">

<g transform="translate(0.000000,420.000000) scale(0.100000,-0.100000)" fill="#ffffff" stroke="none">
<path d="M1995 4031 c-576 -77 -985 -584 -927 -1148 28 -272 123 -466 322 -656 55 -53 105 -97 111 -97 6 0 9 -10 7 -22 -2 -17 -23 -33 -78 -61 -175 -90 -336 -219 -471 -377 -196 -230 -313 -507 -350 -822 -17 -144 -21 -139 140 -136 l126 3 7 35 c4 19 11 78 17 130 54 496 460 925 971 1026 616 121 1210 -222 1411 -815 35 -103 59 -224 59 -300 0 -31 4 -62 8 -69 7 -9 41 -12 138 -10 l129 3 3 50 c11 156 -57 424 -159 626 -137 274 -396 529 -676 665 -40 20 -73 42 -73 49 0 7 24 30 53 52 283 215 439 584 397 943 -27 236 -115 428 -275 598 -155 165 -322 261 -542 313 -97 22 -259 31 -348 20z m332 -302 c376 -116 599 -455 552 -840 -36 -302 -239 -549 -534 -650 -62 -21 -87 -24 -225 -24 -137 0 -163 3 -225 24 -217 73 -374 206 -467 392 -59 119 -77 188 -85 314 -12 216 57 408 206 567 125 134 281 213 476 242 64 9 236 -5 302 -25z" fill="#ffffff"/>
</g>
</svg>